<?xml version="1.0" encoding="UTF-8" standalone="no"?>
<svg
   xmlns:dc="http://purl.org/dc/elements/1.1/"
   xmlns:cc="http://creativecommons.org/ns#"
   xmlns:rdf="http://www.w3.org/1999/02/22-rdf-syntax-ns#"
   xmlns:svg="http://www.w3.org/2000/svg"
   xmlns="http://www.w3.org/2000/svg"
   xmlns:xlink="http://www.w3.org/1999/xlink"
   version="1.1"
   width="1604.2545"
   height="403.75797"
   id="svg34"
   viewBox="0 0 1604.2545 403.75796">
  <metadata
     id="metadata38">
    <rdf:RDF>
      <cc:Work
         rdf:about="">
        <dc:format>image/svg+xml</dc:format>
        <dc:type
           rdf:resource="http://purl.org/dc/dcmitype/StillImage" />
        <dc:title></dc:title>
      </cc:Work>
    </rdf:RDF>
  </metadata>
  <defs
     id="defs22">
    <linearGradient
       id="grad1">
      <stop
         offset="201392128.0000%"
         stop-color="#00425b"
         stop-opacity="1.0000"
         id="stop10" />
      <stop
         offset="201392141.0000%"
         stop-color="#004a6a"
         stop-opacity="1.0000"
         id="stop12" />
      <stop
         offset="201392183.0000%"
         stop-color="#0092c8"
         stop-opacity="1.0000"
         id="stop14" />
      <stop
         offset="201392216.0000%"
         stop-color="#004a6a"
         stop-opacity="1.0000"
         id="stop16" />
      <stop
         offset="100.0000%"
         stop-color="#00425b"
         stop-opacity="1.0000"
         id="stop18" />
    </linearGradient>
    <linearGradient
       xlink:href="#grad1"
       id="grad2"
       x1="0"
       y1="0"
       x2="0"
       y2="1"
       gradientUnits="objectBoundingBox" />
  </defs>
  <path
     d="m 657.3815,82.368652 c -153.6769,2.477 -221.5032,-98.8893 -358.1638,-58.1082 -16.1009,4.8039 -27.1888,10.3815 -34.3655,16.6737 0.007,-0.0174 -6.7189,5.3037 -9.4987,13.6368 -0.8689,2.9661 -1.8235,7.7303 -0.2737,18.5366 3.6028,15.3143 15.0747,32.824998 27.5011,52.213298 16.5763,25.8651 27.812,51.1472 33.7476,80.6918 5.2341,-1.0699 11.5032,-3.089 18.8087,-6.0596 l 43.684,-23.0193 24.1882,-12.7471 11.3398,-7.439 c -0.9271,6.3179 -1.9298,12.6246 -2.81,18.9494 l -0.8135,6.1282 c -0.715,5.6322 -1.3335,11.2455 -1.8537,16.8391 l -0.3577,3.9921 c -0.4936,5.8074 -0.8829,11.5938 -1.1683,17.3593 l -0.2726,6.3968 c -0.1629,4.5101 -0.2614,9.0058 -0.295,13.4888 0.001,6.331 -0.1295,12.7838 0.2485,19.1005 0.9734,16.2495 1.5767,32.7063 3.3619,41.835 l -10.6366,-4.3553 c -37.7685,-21.0063 -56.653,-31.5108 -56.653,-31.5108 -5.5281,-3.9358 -11.3829,-8.1923 -17.567,-12.7706 -2.9759,1.7759 -4.9959,5.6765 -6.5818,10.543 -23.2227,69.0459 16.7647,89.93 68.6345,114.503 -43.0842,1.5758 -69.7678,1.6103 -111.2368,-11.1061 -11.1394,-3.8048 -25.302,-6.4508 -36.2744,-9.4654 l -33.1384,-11.8544 c -6.5104,0.4481 -13.1389,0.1744 -20.2295,-0.1158 -18.3598,-0.7517 -37.9226,-3.6826 -52.4502,-9.8552 l 0.1153,0.2737 c 6.0506,6.5 11.0879,12.7835 11.7467,13.6706 l 0.3842,6.6764 0.4875,8.466 0.9518,16.5612 0.6123,10.6374 0.4458,7.7277 -2.452,4.8957 c -12.9965,-11.0414 -24.0615,-35.0089 -34.4576,-78.3206 l -0.0331,-0.0157 v -0.1024 c -1.2814,-0.4886 -2.4968,-1.0455 -3.6352,-1.6892 -14.0633,-7.184 -32.0632,-19.5682 -40.4053,-33.7266 -3.9201,-6.6518 -7.7025,-14.5105 -11.347,-23.5771 -6.6666,-16.5855 -1.2154,-16.7076 -17.8891,-19.0952 -21.2862,-3.0476 -34.2125,-9.7139 -38.7796,-19.9961 -1.6671,-2.3997 -1.1927,-9.7335 1.2159,-11.9406 2.8156,-2.2758 7.6089,-4.2098 14.3793,-5.7974 3.7883,-0.7307 8.3521,-1.6268 9.0218,-1.7337 4.972,-0.6503 9.3825,-0.8521 11.9501,-1.4644 4.3466,-1.0366 5.9258,-1.769 7.5257,-2.775 5.4677,-3.4382 9.7813,-7.61 19.2495,-17.3378 4.0052,-4.4597 6.6377,-7.6536 8.9232,-10.7658 -0.106,-0.8066 -0.1612,-1.6293 -0.1612,-2.4649 0,-8.5279 5.6961,-15.7273 13.4899,-18.0028 2.4403,-3.7701 5.3916,-8.2527 9.0912,-13.7218 14.0647,-20.7917 30.1323,-40.1475 50.3007,-55.330798 11.6115,-8.7411 23.0845,-17.7052 35.401,-25.4221 44.847,-28.0985 97.7999,-49.0338 151.4549,-57.7267996 147.9455,-17.9227004 195.4142,56.8206996 325.6721,77.0646996 0.7145,0.091 1.2185,0.736 1.1259,1.4371 -0.084,0.6341 -0.6278,1.0989 -1.2588,1.1157 z"
     style="fill:#ffffff;fill-rule:evenodd"
     id="path26" />
  <g
     id="g205"
     transform="translate(569.5503,-209.53915)">
    <path
       d="m -155.397,366.4088 0.0246,-0.0154 m 0.1167,-0.0725 0.0165,-0.0106 -0.0165,0.0106 0.0165,-0.0106 0.0381,-0.0235 -0.0134,0.0912 -0.004,0.0246 -8e-4,0.006 c -0.9227,6.2211 -1.9164,12.5356 -2.7921,18.8274 -2.5866,1.0027 -5.3233,2.0667 -8.2108,3.1926 3.1833,-6.7909 6.8037,-14.0616 10.8238,-22.0194 l 5e-4,-3e-4 6e-4,-3e-4 h 3e-4 l 0.0243,-0.0154 0.1167,-0.0725 0.0165,-0.0106 0.0381,-0.0235 0.0551,-0.0347 -0.0551,0.0347 z m 0.1097,-0.0688 0.0473,-0.0294 z m 0.0473,-0.0294 0.047,-0.0288 z m 0.047,-0.0288 0.0465,-0.0294 z m -0.3464,0.2155 z m 0.1424,-0.0885 0.0165,-0.0106 0.0381,-0.0235 M -304.8957,250.6331 c -0.5404,0.4508 -2.1252,1.8456 -3.9045,4.0001 -3.4217,4.0741 -5.4425,8.4185 -6.3193,13.0192 -3.4035,10.864 -4.2651,25.2774 -2.583,43.2396 0.1551,-9.1937 1.2336,-18.6086 3.232,-28.2453 3.6028,15.3143 15.0747,32.825 27.5011,52.2133 15.589,24.3242 26.4539,48.1335 32.6299,75.4566 l 0.1027,0.5735 -10.402,1.6474 c -10.4093,-28.3266 -21.2109,-51.2645 -36.8693,-67.5487 18.2837,29.5401 28.6714,52.3582 31.166,68.4512 3.0831,3.1109 8.7906,3.8141 17.1203,2.1118 l 0.246,-0.0509 c 0.3291,-0.0689 0.6624,-0.1411 0.9996,-0.2172 l 0.2539,-0.0579 0.5118,-0.1198 0.2583,-0.0619 0.2597,-0.0632 0.2614,-0.0649 0.0478,-0.0121 0.4791,-0.1217 0.2659,-0.0688 0.004,-10e-4 0.4167,-0.1099 0.2147,-0.0577 0.4435,-0.1209 0.2732,-0.0758 0.0103,-0.003 0.4604,-0.1302 0.0809,-0.0229 0.2779,-0.08 0.2806,-0.0818 0.4467,-0.1323 0.2949,-0.0885 0.4582,-0.1396 0.2862,-0.0884 0.3977,-0.1243 0.3921,-0.1242 0.4388,-0.1408 0.2851,-0.0929 0.473,-0.1553 0.2474,-0.0823 0.572,-0.1925 0.0809,-0.0275 0.0254,-0.008 0.0946,-0.0324 0.5981,-0.206 0.1967,-0.0683 0.5793,-0.2034 0.2496,-0.0887 0.4142,-0.1481 0.27,-0.0971 0.0445,-0.0162 0.7341,-0.2684 0.0428,-0.0157 0.1752,-0.0649 0.6425,-0.2393 0.0135,-0.005 0.0285,-0.0109 0.7161,-0.2712 0.0971,-0.0366 0.1195,-0.0459 0.6577,-0.2536 0.0744,-0.0288 0.0468,-0.0182 c 0.2661,-0.1033 0.5336,-0.2082 0.8026,-0.3143 l 0.0128,-0.005 0.0611,-0.0241 0.6727,-0.2675 0.1383,-0.0551 0.0727,-0.0294 c 0.2684,-0.1075 0.5382,-0.2164 0.8096,-0.3269 v 0.001 l 25.2036,-13.2819 1.3091,-0.6898 1.3421,-0.7072 1.3755,-0.7248 2.85,-1.502 1.4748,-0.7771 1.5078,-0.7948 1.5412,-0.8121 1.5741,-0.8295 1.6072,-0.8471 1.6405,-0.8645 1.6738,-0.8818 0.5843,-0.3078 0.003,-0.002 24.1849,-12.7451 c -38.1586,27.205 -57.2362,40.8071 -57.2362,40.8071 -3.757,15.5904 -3.8941,32.8308 -0.415,51.7223 4.6441,3.9702 23.6876,19.8201 54.394,39.7655 -37.7685,-21.0063 -56.653,-31.5108 -56.653,-31.5108 -5.5281,-3.9358 -11.3829,-8.1923 -17.567,-12.7706 -13.4011,-0.9918 -20.675,-0.6518 -21.8221,1.0195 2.681,2.9532 7.7608,6.1281 15.2403,9.5235 -14.0011,40.6062 -2.2334,75.2894 36.357,98.0862 -45.3287,-15.2499 -57.8729,-32.6033 -62.5677,-59.8881 2.2153,-5.6762 3.9599,-11.6266 5.2282,-17.8533 -1.6573,5.1162 -3.7827,9.9948 -6.3677,14.639 -3.1226,-9.3982 -4.5714,-19.3024 -4.3424,-29.7125 -1.4634,-60.5597 -37.7865,-118.2801 -49.7467,-164.6344 5.5069,3.7869 10.9897,7.9931 16.4507,12.6531 -5.0496,-6.1628 -10.9071,-11.9095 -17.5675,-17.244 -6.3968,-28.3849 -2.5833,-52.2527 25.7458,-69.5396 -28.7542,8.9258 -45.1724,26.9873 -49.2622,54.1767 -7.5668,-4.0523 -15.7966,-7.7642 -24.6877,-11.1361 4.0653,-5.7249 15.8856,-15.2966 35.4605,-28.7148 -12.7314,6.8488 -26.727,15.6299 -41.9861,26.3434 l 0.001,0.001 c -3.3885,-1.1807 -6.8662,-2.3144 -10.4328,-3.4022 3.0086,-2.0767 6.0548,-4.0978 9.1544,-6.04 5.5763,-3.4936 11.2779,-6.8764 17.0904,-10.1389 l 0.1397,-0.0784 c 0.6716,-0.3766 1.3449,-0.7514 2.0196,-1.125 l 0.2144,-0.1189 c 0.6828,-0.3775 1.3671,-0.7534 2.053,-1.1272 l 0.1309,-0.0714 c 0.6972,-0.38 1.3962,-0.7584 2.0964,-1.1348 l 0.1329,-0.0716 c 0.6943,-0.3731 1.3895,-0.7439 2.0866,-1.1136 l 0.1757,-0.0931 c 0.705,-0.3731 1.411,-0.7447 2.1188,-1.1141 l 0.0355,-0.0185 c 6.6711,-3.483 13.4706,-6.8068 20.3784,-9.9573 l 0.1995,-0.0913 c 0.689,-0.3137 1.3794,-0.6251 2.0703,-0.9355 l 0.2947,-0.1326 c 0.6565,-0.2942 1.3142,-0.5866 1.9727,-0.8776 l 0.4413,-0.1951 c 0.6462,-0.2849 1.2937,-0.5678 1.9416,-0.8496 l 0.4097,-0.178 c 0.6644,-0.288 1.3296,-0.5745 1.9959,-0.8594 l 0.3708,-0.1581 c 0.6593,-0.2813 1.3192,-0.5609 1.9805,-0.8387 l 0.4545,-0.1906 c 0.6394,-0.2681 1.2797,-0.5351 1.9208,-0.8001 l 0.4954,-0.204 c 0.6473,-0.2667 1.2957,-0.532 1.9444,-0.7956 l 0.3996,-0.1618 c 0.6658,-0.2695 1.3321,-0.5381 1.9992,-0.8043 l 0.3932,-0.1561 c 4.5549,-1.8126 9.1469,-3.548 13.7709,-5.2033 l 0.3904,-0.1402 c 0.6131,-0.2188 1.2271,-0.4352 1.8414,-0.6512 l 0.6638,-0.2337 c 0.5871,-0.2054 1.1751,-0.4085 1.763,-0.6112 l 0.7304,-0.2515 c 0.5597,-0.1917 1.12,-0.3818 1.6805,-0.5712 l 0.8564,-0.2888 c 0.5258,-0.1763 1.0522,-0.3515 1.5786,-0.5256 l 0.9585,-0.3162 c 0.5113,-0.1679 1.0228,-0.3344 1.535,-0.5004 l 1.0057,-0.3243 c 0.4954,-0.159 0.9907,-0.3174 1.4866,-0.4747 l 1.0539,-0.3321 c 0.4842,-0.152 0.968,-0.3034 1.4527,-0.4537 l 1.1382,-0.3503 1.3774,-0.4204 1.174,-0.3529 c 0.4564,-0.1368 0.9128,-0.2737 1.3695,-0.4088 0.3848,-0.1139 0.7699,-0.2259 1.155,-0.3386 0.4712,-0.138 0.9425,-0.276 1.4143,-0.4123 0.3431,-0.099 0.6868,-0.1961 1.0304,-0.2944 0.5094,-0.1455 1.0187,-0.2916 1.5286,-0.4351 0.373,-0.105 0.7469,-0.208 1.1202,-0.3118 0.4646,-0.1293 0.9291,-0.2594 1.3942,-0.3873 l 0.035,-0.01 c 0.8256,-0.2267 1.6517,-0.45 2.4786,-0.6713 z m 136.4541,244.1114 c 2.6888,1.1339 5.3124,2.2066 7.8705,3.216 0.1192,1.2047 0.2443,2.4087 0.3738,3.6126 0.3154,2.9401 0.6616,5.8749 1.0358,8.8029 -3.4993,-4.2358 -8.2005,-14.7002 -9.2801,-15.6315 z m -14.1973,91.7215 c -43.1397,3.9778 -88.9416,-10.308 -124.37,-34.6322 2.0345,-1.8319 3.9739,-3.7371 5.8198,-5.7146 1.8767,-1.901 3.7472,-3.9327 5.6129,-6.0973 17.6115,32.5882 79.8005,45.2086 112.9373,46.4441 z m -200.2056,-32.2224 c -14.0014,-31.7134 -29.3209,-64.7013 -36.9325,-98.5418 14.3143,1.3195 22.8695,-5.1355 28.3258,-13.2598 10.0387,-14.9482 22.4624,-45.3846 26.8555,-73.601 -14.3255,0.1833 -38.2798,13.7297 -63.8472,35.6562 -0.783,-7.3573 -1.3136,-14.4932 -1.5965,-21.4094 -0.4699,-25.839 1.6144,-47.3564 6.2518,-64.5523 l 0.004,-0.0176 0.15,-0.5441 c 0.4271,-1.5347 0.8729,-3.0517 1.3419,-4.5503 l 0.1036,-0.33 c 0.0738,-0.2342 0.1519,-0.4656 0.2272,-0.7004 3.7337,-11.4459 8.7537,-20.717 15.0601,-27.8123 16.8682,2.0264 33.3592,6.3915 49.5821,13.8836 -1.2484,14.3722 0.6599,31.0798 5.7321,50.1314 3.5314,12.1013 6.7584,23.8065 9.6817,35.1125 14.9739,82.2673 16.7787,137.9971 5.4299,167.2216 -14.4257,3.6719 -31.6417,4.629 -46.3697,3.3137 z m -10.0997,-2.3511 -0.8463,-0.0755 c -12.092,-1.9472 -20.8754,-3.3859 -31.0616,-6.1883 -2.1425,-2.3026 -4.3173,-6.872 -6.3123,-8.688 11.5197,4.4343 22.7574,10.4734 38.2202,14.9518 z m -68.1848,-18.7233 c -6.0325,-3.0817 -12.7894,-7.1208 -19.1974,-11.8457 -2.6477,-2.2646 -5.2752,-3.4352 -8.5687,-6.9753 -2.2467,-9.462 -2.3964,-8.4747 -3.5731,-14.8835 -3.9708,-21.6212 -3.171,-49.804 2.3999,-84.5487 -0.9514,46.8241 2.1146,78.1815 9.1987,94.0717 2.918,5.8995 7.306,10.5246 17.546,16.5069 z m -37.5225,-29.3974 c -1.0537,-1.4219 -2.0205,-2.8659 -2.8828,-4.3292 l -0.1835,-0.3126 -0.0468,-0.0801 -0.1368,-0.2345 -0.0935,-0.1609 -0.0898,-0.1553 -0.1399,-0.2432 -0.2259,-0.3946 -0.004,-0.006 -0.1791,-0.3151 -0.0501,-0.0887 -0.005,-0.008 -0.2233,-0.3969 -9e-4,-10e-4 -0.0859,-0.1533 -0.1427,-0.2561 -0.0392,-0.0705 -0.1819,-0.3288 -0.007,-0.0129 -0.1744,-0.3174 -0.0534,-0.0976 -0.0126,-0.023 c -0.1391,-0.2544 -0.2779,-0.5104 -0.4167,-0.7682 l -0.0255,-0.047 -0.0355,-0.066 -0.1808,-0.3372 -0.0107,-0.0202 -0.2194,-0.4125 -0.007,-0.0134 -0.1237,-0.2343 -0.1027,-0.1947 -0.0776,-0.1481 -0.1483,-0.2835 -0.0319,-0.061 -0.1796,-0.3461 -0.0143,-0.0275 -0.1654,-0.3207 -0.0599,-0.1164 -0.1195,-0.2334 -0.1055,-0.2065 -0.0165,-0.0328 -0.1895,-0.373 -0.0187,-0.0372 -0.028,-0.0554 -0.1788,-0.3552 -0.0177,-0.0349 -0.1611,-0.3219 -0.063,-0.1265 -0.1153,-0.2322 -0.1083,-0.2189 -0.07,-0.1416 -0.1536,-0.3123 -0.0244,-0.0498 -0.1777,-0.3641 -0.0209,-0.0428 -0.1568,-0.3227 -0.066,-0.1368 -0.1114,-0.2309 -0.1111,-0.2314 -0.066,-0.1377 -0.1562,-0.3274 -0.021,-0.0437 -0.1766,-0.3728 -0.0243,-0.0514 -0.1523,-0.3233 -0.0694,-0.1475 -0.1071,-0.2289 -0.1139,-0.2443 -0.0622,-0.1337 -0.1589,-0.3426 -0.0171,-0.0372 -0.1757,-0.3817 -0.0277,-0.0602 -0.1481,-0.3232 -0.0722,-0.1584 -0.103,-0.2267 -0.1169,-0.258 -0.0582,-0.129 -0.1615,-0.3582 -0.0137,-0.0305 -0.1747,-0.3907 -0.0307,-0.0691 -0.1439,-0.323 -0.0753,-0.1698 -0.099,-0.2242 -0.1195,-0.2717 -0.0546,-0.1243 -0.164,-0.3741 -0.0101,-0.0233 -0.1738,-0.3993 -0.0341,-0.0787 -0.1394,-0.3226 -0.0783,-0.1814 -0.0952,-0.2213 -0.1223,-0.2855 -0.0506,-0.1192 -0.1662,-0.3907 -0.007,-0.0159 -0.1729,-0.408 -0.0372,-0.0885 -0.1352,-0.3215 -0.0812,-0.1937 -0.0912,-0.218 -0.1251,-0.3 -0.047,-0.1136 -0.1687,-0.4072 -0.003,-0.008 -0.1715,-0.417 -0.0406,-0.0985 -0.131,-0.3201 -0.0842,-0.206 -0.0873,-0.2146 -0.1274,-0.3146 -0.0436,-0.108 -0.171,-0.424 c -6.6666,-16.5855 -1.2154,-16.7076 -17.8891,-19.0952 -21.2862,-3.0476 -34.2125,-9.7139 -38.7796,-19.9961 5.4598,0.5395 11.5365,1.0086 18.2316,1.4085 -7.4862,-3.5158 -13.1585,-7.9651 -17.0157,-13.3491 2.8156,-2.2758 7.6089,-4.2098 14.3793,-5.7974 4.2027,8.3636 10.264,14.5944 18.1835,18.6937 l -0.0129,-0.0118 c 13.2467,9.0982 22.7442,-17.7349 27.2,-39.5581 0.7558,-0.7713 1.5456,-1.5812 2.3765,-2.4347 4.1087,-4.575 6.774,-7.8182 9.1007,-11.0073 l 0.002,-0.003 c 0.5463,5.1481 3.0414,9.4468 6.9613,12.493 -7.0097,20.1579 -11.0118,38.3889 -12.0087,54.6969 0.009,-0.1861 0.0168,-0.3714 0.0272,-0.5583 -1.7191,20.0076 -0.5603,37.4816 3.4735,52.425 z m -46.5177,-86.4284 0.1757,-0.0311 0.0263,-0.004 0.0342,-0.006 c 4.972,-0.6503 9.3825,-0.8521 11.9501,-1.4644 l 0.005,-10e-4 c 1.5075,-0.2676 2.9401,-0.6468 4.4627,-1.2759 1.3139,-0.4796 2.1812,-0.9467 3.0535,-1.4949 0.002,0.002 0.003,8e-4 0.005,-0.003 2.5771,7.5806 1.5747,13.7647 -3.007,18.5495 -4.3094,1.3453 -10.109,-3.1102 -16.705,-14.2692 z m 61.0864,-52.6554 c 2.4649,-3.8107 5.454,-8.3532 9.2182,-13.918 4.8532,-7.1745 9.9447,-14.1775 15.3612,-20.8978 -6.4315,11.8027 -12.1384,23.1416 -17.1234,34.0185 -0.5605,-0.049 -0.4581,-0.075 -1.7034,-0.075 -1.2454,0 -4.0081,0.3551 -5.7526,0.8723 z m 211.4249,-145.0099 c 0.4005,-0.1041 0.8015,-0.2063 1.202,-0.309 0.4592,-0.1181 0.9184,-0.2365 1.378,-0.3529 0.3962,-0.1004 0.7928,-0.1987 1.1896,-0.2977 0.4648,-0.1162 0.9297,-0.2326 1.3948,-0.347 0.4164,-0.1025 0.8331,-0.2029 1.2501,-0.304 0.4376,-0.106 0.8753,-0.2124 1.3133,-0.3167 0.4318,-0.103 0.8636,-0.2046 1.2957,-0.3062 0.4265,-0.1002 0.853,-0.2007 1.2797,-0.2994 0.4402,-0.1019 0.8807,-0.2024 1.3212,-0.3028 0.4245,-0.0969 0.8494,-0.1934 1.2739,-0.2886 0.4234,-0.0951 0.8471,-0.1886 1.2708,-0.2823 0.4598,-0.1016 0.9196,-0.2021 1.3796,-0.302 l 1.176,-0.253 c 0.4821,-0.103 0.9643,-0.2051 1.4468,-0.3061 l 1.1418,-0.2376 c 0.4892,-0.101 0.9783,-0.2004 1.4678,-0.2995 0.3853,-0.0778 0.7701,-0.1558 1.1558,-0.2325 0.4687,-0.0932 0.9377,-0.1847 1.4065,-0.2762 0.4055,-0.0792 0.8107,-0.1581 1.2162,-0.2359 0.4811,-0.0924 0.9627,-0.1825 1.444,-0.2726 0.3762,-0.0705 0.7526,-0.1416 1.1287,-0.211 0.5197,-0.096 1.0399,-0.1889 1.5596,-0.2827 0.3506,-0.0632 0.7013,-0.1273 1.0522,-0.1894 0.6095,-0.108 1.2193,-0.2127 1.8291,-0.3174 l 0.755,-0.1304 c 0.8735,-0.1486 1.7474,-0.2933 2.6217,-0.4349 147.9455,-17.9227 195.4142,56.8207 325.6721,77.0647 0.7145,0.091 1.2185,0.736 1.1259,1.4371 -0.084,0.6341 -0.6278,1.0989 -1.2588,1.1157 -153.6769,2.477 -221.5032,-98.8893 -358.1638,-58.1082 -16.1009,4.8039 -27.1888,10.3815 -34.3655,16.6737 l 0.0109,-0.0269 -0.2085,0.1867 m 30.7499,-30.5627 c 0.4959,-0.1312 0.9915,-0.263 1.4879,-0.3923 z m -216.4735,172.918 c 2.7882,6.9878 9.7144,11.935 17.8192,11.935 10.5648,0 19.1313,-8.4109 19.1313,-18.7863 0,-4.2036 -1.4059,-8.0849 -3.7816,-11.215 0.8468,2.1232 1.3125,4.4342 1.3125,6.8513 0,10.3765 -8.5648,18.7863 -19.1316,18.7863 -6.2852,0 -11.8631,-2.9754 -15.3498,-7.5713 z m 59.6754,63.2415 c 11.3991,38.9254 25.0096,70.1356 40.832,93.6323 -16.7954,-34.7355 -27.8638,-65.799 -33.2033,-93.1913 -5.0857,-0.2935 -7.6287,-0.441 -7.6287,-0.441 z m 109.9311,83.0571 c 2.1014,-26.1192 0.83,-48.37 -3.8144,-66.7545 3.1388,25.0524 2.0914,50.0215 -3.1404,74.9048 8.1338,-2.8052 22.3426,-13.3796 42.6272,-31.7245 -16.9745,12.7734 -28.8651,20.631 -35.6724,23.5742 z M -431.6091,310.4532 c -6.2776,22.6555 -5.2746,71.0448 -0.0173,88.986 -2.9947,-23.4663 -0.9182,-76.3035 9.2543,-102.3337 -10.055,8.7744 -17.3837,15.6774 -21.9858,20.7094 8.499,-4.9083 12.7488,-7.3617 12.7488,-7.3617 z m -29.3778,79.1593 c 1.5739,-2.3692 2.4904,-5.1987 2.4904,-8.239 0,-4.1659 -1.7196,-7.9382 -4.5002,-10.6684 -0.1019,-0.0994 -0.2049,-0.1979 -0.3084,-0.2942 l -0.0636,-0.0629 c -2.8986,-2.8467 -6.9024,-4.6078 -11.3255,-4.6086 -4.423,8e-4 -8.4276,1.7619 -11.3263,4.6086 -2.8987,2.8463 -4.6914,6.779 -4.6914,11.1223 0,4.3444 1.7927,8.2752 4.6914,11.1215 2.8987,2.8466 6.9033,4.6069 11.3263,4.6069 4.4231,0 8.4269,-1.7603 11.3255,-4.6069 0.9098,-0.8921 1.7094,-1.8932 2.3818,-2.9793 z m -20.1424,-15.3749 c 1.8596,-1.826 4.4289,-2.9561 7.2677,-2.9561 1.7684,0 3.4326,0.4397 4.8859,1.2118 0.6929,0.4256 1.3307,0.926 1.906,1.4899 1.9495,1.9153 3.1576,4.5632 3.1576,7.4871 0,2.8914 -1.1815,5.5128 -3.0943,7.4241 -1.8193,1.5988 -4.2215,2.5721 -6.8552,2.5721 -2.8388,0 -5.4081,-1.13 -7.2677,-2.956 -1.8596,-1.8252 -3.0103,-4.3494 -3.0103,-7.137 0,-2.7856 1.1507,-5.3096 3.0103,-7.1359 z m 23.6355,160.7232 0.0331,0.0157 c 10.3961,43.3117 21.4611,67.2792 34.4576,78.3206 -4.4558,-10.7442 -10.6382,-23.6887 -16.0382,-39.4053 7.9491,15.2857 14.1117,26.7878 18.4902,34.5096 l -0.4458,-7.7277 c -5.1904,-10.0508 -13.0043,-26.5023 -23.4441,-49.3582 9.9528,17.1914 17.5636,30.0978 22.8318,38.7208 l -0.9518,-16.5612 -21.3606,-30.578 c 8.5262,9.3629 15.4829,16.7319 20.8731,22.112 l -0.3842,-6.6764 -0.0342,-0.0456 -0.0369,-0.0487 -0.003,-0.005 -0.0467,-0.061 -0.0442,-0.0571 -0.009,-0.0114 -0.108,-0.1388 -0.016,-0.0205 -0.0708,-0.0904 -0.052,-0.066 -0.0249,-0.0313 -0.0826,-0.1047 -0.0529,-0.0666 -0.0355,-0.0448 -0.0938,-0.1178 -0.052,-0.0652 -0.0476,-0.0596 -0.1049,-0.131 -0.049,-0.061 -0.0616,-0.0767 -0.1158,-0.1435 -0.0442,-0.0549 -0.0767,-0.0951 -0.1262,-0.1559 -0.0381,-0.0468 -0.0935,-0.115 -0.1362,-0.1676 -0.0297,-0.0364 -0.1117,-0.1365 -0.1461,-0.1789 -0.0201,-0.0246 -0.131,-0.1595 -0.1556,-0.1895 -0.009,-0.0109 -0.1514,-0.1836 -0.1612,-0.1953 -0.004,-0.005 -0.1693,-0.2045 -0.1561,-0.1881 -0.0176,-0.0213 -0.1783,-0.2141 -0.1495,-0.1793 -0.033,-0.0395 -0.1864,-0.223 -0.1413,-0.1685 -0.0495,-0.0591 -0.326,-0.3878 -0.0672,-0.0798 -0.2026,-0.2401 -0.1201,-0.1422 -0.0862,-0.1015 -0.2101,-0.2474 -0.1078,-0.1268 -0.1058,-0.1243 -0.2171,-0.2546 -0.094,-0.11 -0.1268,-0.148 -0.2242,-0.2614 -0.0792,-0.0921 -0.1483,-0.1724 -0.2306,-0.2675 -0.063,-0.0731 -0.1709,-0.1975 -0.2371,-0.2732 -0.0459,-0.0529 -0.1942,-0.223 -0.2429,-0.2787 -0.0277,-0.0317 -0.2183,-0.2493 -0.2485,-0.2832 -0.009,-0.0101 -0.2426,-0.2754 -0.2429,-0.275 -0.0112,-0.0126 -0.2566,-0.2897 -0.2273,-0.2558 -0.0316,-0.0355 -0.2616,-0.2933 -0.2105,-0.2356 -0.0532,-0.0593 -0.2661,-0.2961 -0.1931,-0.2147 -0.075,-0.0831 -0.4069,-0.4494 -0.0381,-0.0423 -0.0976,-0.1074 -0.2746,-0.3012 -0.1553,-0.1704 -0.0484,-0.0529 -0.3504,-0.3817 -0.1354,-0.1472 -0.1441,-0.1562 -0.2813,-0.3042 -0.0277,-0.0299 -0.2146,-0.2309 c -5.5847,-6.0033 -12.0406,-12.2011 -16.7168,-14.5127 -6.0011,-2.9658 -5.644,0.2365 -5.6382,4.6654 z m 298.6692,-143.5964 c -0.715,5.6322 -1.3335,11.2455 -1.8537,16.8391 l -14.6084,1.7754 c 1.8296,-5.1372 4.0287,-10.4689 6.568,-16.1208 3.5315,-0.8958 6.8306,-1.7275 9.8941,-2.4937 z m -2.2114,20.8312 c -0.4936,5.8074 -0.8829,11.5938 -1.1683,17.3593 h -18.3053 c 0.9241,-5.597 2.3922,-11.2259 4.3623,-17.0857 z m -1.4409,23.7561 c -0.1629,4.5101 -0.2614,9.0058 -0.295,13.4888 l -18.6746,-0.2676 c -0.3929,-5.5844 -0.2247,-10.9869 0.462,-16.3849 6.7911,1.1726 12.9607,2.2273 18.5076,3.1637 z m -0.2933,20.7167 c 0.0319,3.968 0.1142,7.9251 0.2468,11.8726 l -15.9679,-1.683 c -1.2705,-4.964 -2.1467,-9.6912 -2.6485,-14.2771 z m 0.4903,17.9073 c 0.2267,4.7947 0.5256,9.5751 0.902,14.3392 -3.3591,-0.9571 -6.9683,-1.9894 -10.8271,-3.0962 -2.0793,-5.2343 -3.7968,-10.1712 -5.17,-14.8858 z m -269.1193,-21.3396 c 15.739,-15.6176 5.5788,-20.9459 -30.4801,-15.9853 36.0416,-35.5807 63.1733,-54.9681 81.3954,-58.1612 -0.4237,3.11 -0.8866,6.1559 -1.3959,9.1321 -23.1217,8.2953 -46.1234,24.2156 -69.0025,47.7619 22.1786,-19.9152 44.833,-33.9609 67.9676,-42.1389 -0.8846,4.479 -1.8887,8.7834 -3.0333,12.9013 -15.8367,3.351 -34.0322,12.143 -54.588,26.3767 22.9513,-10.725 40.2849,-16.7613 52.0067,-18.1102 -1.7362,4.9556 -3.7287,9.5829 -6.0229,13.8503 -11.7988,-0.1961 -22.9709,1.507 -33.5145,5.1112 12.6357,-1.0153 22.5516,-0.6305 29.7491,1.1552 -0.8883,1.3209 -1.8134,2.5979 -2.777,3.8314 -1.8845,2.4096 -3.5048,4.4547 -5.1246,6.1755 -3.0794,-3.0118 -7.822,-5.145 -14.2272,-6.4005 5.7783,5.7739 7.9491,9.7536 6.5112,11.9418 -3.9831,1.6449 -9.2499,2.407 -17.464,2.5587 z m -97.0238,-21.6369 z m 7.7717,-21.8988 -0.1758,0.1363 c -0.2854,0.2197 -0.5647,0.431 -0.8384,0.6364 0.2737,-0.2046 0.553,-0.4167 0.8384,-0.6364 z m 5.0943,-4.3209 0.5547,-0.5135 c -0.1841,0.1727 -0.3702,0.3434 -0.5547,0.5135 z m 201.7828,151.9326 c 22.0787,16.4518 53.667,26.1061 81.0562,29.6599 -33.5229,-1.4995 -64.8874,-10.7793 -96.7586,-20.7582 4.4583,-2.5614 11.7638,-6.0366 15.7024,-8.9017 z m 131.1353,29.1539 c -30.7768,-12.797 -93.8647,-13.8159 -109.0955,-52.3635 3.0263,-4.594 5.6602,-9.4897 7.8996,-14.6913 8.5349,49.279 73.5739,49.8301 101.1959,67.0548 z m -341.5282,-174.2427 3e-4,-3e-4 z m 3e-4,-3e-4 c 0.3814,-0.2482 0.7732,-0.5116 1.1768,-0.7934 -0.4036,0.2818 -0.7954,0.5452 -1.1768,0.7934 z m 1.1896,-0.8018 c 0.4022,-0.2821 0.8164,-0.5801 1.2431,-0.8975 -0.4267,0.3174 -0.8409,0.6163 -1.2431,0.8975 z"
       style="fill:#85ccbd;fill-rule:evenodd"
       id="path28" />
    <path
       d="m 267.4537,454.9839 c -0.1329,-0.2628 -0.2622,-0.5269 -0.3906,-0.7933 -0.4781,-0.9916 -0.9193,-2.0011 -1.327,-3.0238 -1.1028,-2.7676 -1.938,-5.6306 -2.4904,-8.5579 -0.5596,-2.9664 -0.8319,-5.9766 -0.8319,-8.9948 0,-1.9825 0.1482,-3.9627 0.4563,-5.9212 0.2963,-1.8846 0.7429,-3.7439 1.3586,-5.5501 0.6081,-1.7813 1.3729,-3.5041 2.2939,-5.1458 0.9235,-1.646 1.9967,-3.2015 3.2007,-4.6543 l 0.0158,-0.019 0.1079,-0.1171 0.7916,-0.8296 0.004,0.004 c 1.1982,-1.2098 2.5012,-2.3093 3.9052,-3.2769 1.674,-1.1544 3.4707,-2.1116 5.359,-2.8663 1.9564,-0.7822 3.9901,-1.3465 6.064,-1.7147 2.1955,-0.3893 4.4261,-0.5615 6.6547,-0.5615 1.5143,0 3.0284,0.0612 4.5375,0.1882 0.7375,0.0622 1.4735,0.1401 2.2077,0.2346 0.2299,-0.5851 0.456,-1.1709 0.6807,-1.7567 0.2933,-0.7707 0.5839,-1.5418 0.8699,-2.3153 l 0.009,-0.0238 c 9.7561,-24.3485 21.1782,-50.846 39.0297,-70.4178 3.1838,-3.4895 6.8222,-6.8768 10.8728,-9.3401 3.2895,-2.0002 6.9421,-3.4273 10.824,-3.5766 l 0.0181,-7e-4 h 0.0509 l 0.0492,-5e-4 c 2.0014,-0.0389 4.0266,0.1964 5.9142,0.8866 6.1179,2.2357 8.2413,8.2888 8.2413,14.3323 0,1.0225 -0.0591,2.0452 -0.1627,3.062 -0.1063,1.0451 -0.2601,2.0855 -0.4657,3.1158 -0.2077,1.0399 -0.4694,2.0694 -0.769,3.0865 -0.3112,1.0571 -0.6652,2.1012 -1.0593,3.1303 -0.9127,2.7179 -1.9688,5.3875 -3.1378,8.0051 -1.2642,2.8307 -2.6583,5.6032 -4.1571,8.3171 -1.6113,2.9174 -3.3425,5.7698 -5.1599,8.5633 -1.9553,3.006 -4.0136,5.9448 -6.1507,8.824 -2.3111,3.1148 -4.7362,6.1455 -7.2466,9.102 -2.7193,3.2022 -5.5392,6.3198 -8.4324,9.3658 -2.9181,3.0724 -5.9132,6.0722 -8.966,9.0108 -2.4164,2.326 -4.8686,4.6147 -7.3517,6.8695 1.9889,1.352 3.8789,2.8477 5.6294,4.4986 2.4941,2.3528 4.6764,4.9968 6.4668,7.9229 1.9304,3.1555 3.355,6.5623 4.2924,10.14 0.9879,3.7691 1.4215,7.6524 1.4215,11.5452 0,5.5886 -1.1122,11.039 -3.0719,16.2626 -0.8599,2.2932 -1.8742,4.5271 -3.0158,6.6936 -0.0898,0.17 -0.18,0.3394 -0.2711,0.5085 2.1547,-0.8298 4.2465,-1.8165 6.266,-2.9355 2.5128,-1.3921 4.9077,-2.9893 7.1812,-4.744 2.3747,-1.8323 4.6161,-3.8358 6.7322,-5.9606 2.3132,-3.5004 4.7897,-6.898 7.4593,-10.1355 2.5264,-3.0639 5.2266,-5.9903 8.1233,-8.7082 2.7363,-2.5681 5.6473,-4.9508 8.7352,-7.0848 2.936,-2.0299 6.028,-3.8273 9.2598,-5.3439 l 0.0834,-0.0417 0.0221,-0.009 c 1.3325,-0.6049 2.6833,-1.1615 4.0622,-1.6519 1.3173,-0.4682 2.6566,-0.8757 4.0145,-1.2092 1.3106,-0.3225 2.6385,-0.574 3.9776,-0.7457 1.2792,-0.1637 2.5697,-0.2587 3.8598,-0.2587 1.2625,0 2.5417,0.1621 3.7759,0.4214 1.2971,0.2725 2.5785,0.6635 3.808,1.1598 1.2034,0.4866 2.374,1.0811 3.4615,1.7906 1.0147,0.6619 1.9762,1.4344 2.7961,2.3288 l 0.0108,0.0118 0.1164,0.1359 c 0.3236,0.3705 0.6211,0.7619 0.8814,1.18 0.2666,0.4287 0.4944,0.8809 0.6793,1.3511 0.1938,0.4937 0.337,1.006 0.4338,1.5274 0.0966,0.5208 0.1486,1.0491 0.1486,1.5786 0,0.4949 -0.0732,0.9841 -0.2155,1.4583 -0.1396,0.4637 -0.3476,0.9018 -0.6074,1.31 l -0.0526,0.0877 -0.072,0.1019 c -0.2049,0.298 -0.4414,0.5705 -0.6989,0.8247 -0.2492,0.2461 -0.5193,0.4703 -0.8041,0.6734 -0.525,0.3752 -1.0823,0.6868 -1.6688,0.9553 -0.4732,0.2167 -0.9575,0.4007 -1.4455,0.5837 -0.0982,0.0365 -0.1962,0.0737 -0.2937,0.1114 l -0.3138,0.1267 c -0.0181,0.007 -0.0365,0.0149 -0.0549,0.0224 -1.0778,2.0023 -2.0753,4.0501 -2.9621,6.1443 -0.92,2.1729 -1.7249,4.3961 -2.3801,6.6632 -0.6089,2.1083 -1.0835,4.2543 -1.4043,6.4255 -0.3051,2.0643 -0.4648,4.1484 -0.4648,6.2355 0,2.0699 0.1515,4.2371 0.661,6.2496 0.3439,1.3593 0.8802,2.7412 1.747,3.8569 l 0.0405,0.0523 0.0299,0.0523 c 0.667,0.8272 1.4985,1.4326 2.4809,1.8422 1.2621,0.5259 2.6861,0.6943 4.0438,0.6943 2.0395,0 4.0777,-0.4694 5.9905,-1.1532 2.5379,-0.9073 4.9673,-2.214 7.2348,-3.6624 2.9864,-1.9076 5.808,-4.1354 8.4781,-6.4613 7.9282,-6.9068 11.3742,-10.1991 15.1101,-19.4858 0.9462,-2.3516 1.8648,-4.7185 2.7151,-7.1064 0.5881,-1.6528 1.1614,-3.3405 1.6139,-5.0359 0.1832,-0.6866 0.4659,-1.7364 0.4659,-2.448 0,-0.4053 0.0638,-0.8079 0.1856,-1.1941 0.1187,-0.3764 0.2925,-0.7337 0.5153,-1.0595 0.3741,-0.5775 0.8645,-1.0858 1.3853,-1.5322 0.5888,-0.5048 1.2361,-0.953 1.893,-1.3635 0.7587,-0.4746 1.5475,-0.9118 2.3368,-1.3327 0.9871,-0.5269 1.9851,-1.0281 2.9876,-1.5122 l 0.0718,-0.0358 0.0869,-0.0384 c 1.2788,-0.5921 2.6371,-1.1108 4.0198,-1.3988 1.2521,-0.2613 2.5676,-0.3348 3.8178,-0.0222 1.5388,0.3839 2.7985,1.2161 3.6641,2.5507 0.831,1.2808 1.1263,2.7866 1.1263,4.295 0,0.2629 -0.0261,0.5253 -0.0777,0.7835 -0.0488,0.243 -0.1199,0.4814 -0.2127,0.711 -0.5627,1.6392 -1.1577,3.2679 -1.7712,4.8889 -0.7286,1.9251 -1.4825,3.8407 -2.2561,5.7481 -0.7431,1.8325 -1.5069,3.657 -2.2776,5.4777 -0.1456,0.3439 -0.2916,0.6876 -0.4379,1.0312 l 0.1314,-0.0325 0.0252,-0.008 2.8251,-0.6682 c 1.19,-0.297 2.3823,-0.5745 3.5797,-0.8407 1.1785,-0.2617 2.3604,-0.5118 3.5459,-0.7407 0.5615,-0.1086 1.1233,-0.2177 1.6836,-0.3326 0.5773,-0.1183 1.1537,-0.2422 1.7298,-0.3663 l 0.4395,-0.0949 0.8941,-0.2 c 0.2071,-0.6661 0.4205,-1.3306 0.6445,-1.991 0.2793,-0.8242 0.5726,-1.6436 0.879,-2.4579 0.305,-0.8114 0.623,-1.6179 0.9565,-2.4183 0.3279,-0.786 0.6699,-1.5661 1.0268,-2.3396 2.2388,-4.8528 7.5641,-10.2825 12.9855,-11.0906 0.3491,-0.0509 0.7007,-0.0893 1.0522,-0.115 0.3465,-0.0256 0.6939,-0.0409 1.0413,-0.0409 0.8654,0 1.7008,0.1809 2.4762,0.569 0.7896,0.395 1.4378,0.973 1.9444,1.6969 0.4049,0.5803 0.6894,1.2259 0.868,1.9099 0.1719,0.6605 0.2482,1.3407 0.2482,2.0226 0,0.3698 -0.0278,0.7422 -0.0673,1.1101 -0.0417,0.3863 -0.1025,0.7712 -0.1734,1.1532 -0.073,0.3931 -0.158,0.7839 -0.2548,1.1721 -0.1027,0.4122 -0.2146,0.8222 -0.3362,1.2297 l -0.0124,0.042 -0.0382,0.0961 c -1.1273,3.7177 -2.2028,7.4527 -3.1993,11.2077 -0.8343,3.1447 -1.613,6.3084 -2.2895,9.491 -0.5328,2.5078 -1.01,5.0418 -1.3485,7.5835 -0.2499,1.8758 -0.4317,3.7945 -0.4317,5.6885 0,1.3989 0.0801,2.875 0.3825,4.2442 0.183,0.8275 0.4706,1.723 0.9537,2.4282 0.2648,0.3865 0.5974,0.688 1.0204,0.8899 0.5483,0.2614 1.1984,0.3387 1.7995,0.3387 2.3752,0 4.732,-0.6982 6.8846,-1.6615 3.0074,-1.3459 5.8461,-3.2912 8.4147,-5.3409 0.2843,-0.2494 0.5657,-0.5022 0.8446,-0.7575 0.4042,-0.3698 0.8032,-0.7462 1.2025,-1.1205 0.4578,-0.4303 0.9138,-0.8625 1.3682,-1.2966 0.3566,-0.3406 0.7125,-0.6819 1.0675,-1.0241 0.5382,-1.4328 1.1614,-2.8336 1.8523,-4.199 0.8335,-1.6483 1.7675,-3.2455 2.7746,-4.7932 l 0.0255,-0.0422 0.2112,-0.3116 c 2.3105,-3.4959 4.7834,-6.8891 7.4488,-10.1228 2.5294,-3.0689 5.2334,-5.9997 8.1341,-8.7214 2.7365,-2.5681 5.6473,-4.9505 8.7352,-7.0848 2.936,-2.0299 6.028,-3.8273 9.2598,-5.3439 l 0.0869,-0.0436 0.0271,-0.0113 c 1.3282,-0.6027 2.6793,-1.1593 4.0537,-1.6481 1.3173,-0.4682 2.6569,-0.8757 4.0147,-1.2092 1.3106,-0.3225 2.6383,-0.574 3.9774,-0.7457 1.2792,-0.1637 2.57,-0.2587 3.86,-0.2587 1.2625,0 2.5417,0.1621 3.7759,0.4214 1.2972,0.2725 2.5785,0.6635 3.808,1.1598 1.2034,0.4866 2.3738,1.0811 3.4615,1.7906 1.0147,0.6619 1.976,1.4344 2.7961,2.3285 l 0.0108,0.0121 0.1164,0.1361 c 0.3236,0.3705 0.6211,0.762 0.8814,1.1798 0.2666,0.4289 0.4944,0.8809 0.6791,1.3511 0.194,0.4939 0.3373,1.0062 0.4338,1.5277 0.0966,0.5205 0.1489,1.0488 0.1489,1.5783 0,0.4951 -0.073,0.9841 -0.2158,1.458 -0.1392,0.464 -0.3476,0.9021 -0.6074,1.3103 l -0.0526,0.0877 -0.0718,0.1015 c -0.2047,0.2982 -0.4414,0.5707 -0.6986,0.8248 -0.2494,0.2462 -0.5198,0.4704 -0.8046,0.6737 -0.525,0.3752 -1.0823,0.6868 -1.6686,0.9553 -0.4732,0.2167 -0.9574,0.4007 -1.4455,0.5837 -0.0982,0.0365 -0.1962,0.0737 -0.2939,0.1114 l -0.3135,0.1267 c -0.0184,0.007 -0.0368,0.0149 -0.0552,0.0224 -1.0776,2.0026 -2.0753,4.0501 -2.9621,6.1443 -0.92,2.1729 -1.7246,4.3961 -2.3799,6.6632 -0.6091,2.1083 -1.0837,4.2545 -1.4043,6.4258 -0.3053,2.0642 -0.4647,4.1483 -0.4647,6.2352 0,2.0699 0.1512,4.2373 0.6607,6.2496 0.3439,1.3593 0.8802,2.7412 1.7472,3.8569 l 0.0417,0.0537 0.0294,0.0518 c 0.6669,0.8266 1.4981,1.4317 2.48,1.8413 1.2621,0.5259 2.6861,0.6943 4.044,0.6943 2.0396,0 4.0775,-0.4694 5.9903,-1.1532 2.5379,-0.9073 4.9673,-2.214 7.2348,-3.6624 2.9867,-1.9076 5.808,-4.1354 8.4783,-6.4613 4.2037,-3.662 8.5901,-7.4483 12.1477,-11.7558 3.3591,-4.0668 5.9163,-8.5972 8.304,-13.2814 1.4486,-2.8423 2.9075,-5.6791 4.3683,-8.515 1.189,-2.309 2.3813,-4.6164 3.5755,-6.9225 -0.4838,-0.0822 -0.9697,-0.1522 -1.4566,-0.2123 l -0.0365,-0.004 -0.0445,-0.009 -0.0184,-0.003 c -1.2787,-0.1168 -2.5638,-0.1837 -3.848,-0.1821 -1.1633,0.002 -2.3273,0.0636 -3.4829,0.1991 -0.9904,0.1161 -1.9771,0.2908 -2.941,0.5471 -0.7191,0.1913 -1.4285,0.4292 -2.116,0.7234 l -0.3588,0.1632 c -0.741,0.337 -1.4815,0.7554 -2.1003,1.2886 -0.4602,0.3962 -0.8583,0.8579 -1.1431,1.3963 -0.2885,0.5455 -0.4489,1.1428 -0.52,1.7538 -0.0966,0.8291 -0.0365,1.6844 0.1005,2.5055 l 0.005,0.0311 0.009,0.0871 0.021,0.1639 10e-4,0.0156 c 0.012,0.13 0.0224,0.2603 0.0285,0.3903 0.006,0.1291 0.0146,0.2617 0.0146,0.3907 0,0.7427 -0.1022,1.4797 -0.3324,2.1868 -0.2379,0.7313 -0.6065,1.3989 -1.1065,1.9825 -0.5222,0.6103 -1.1532,1.092 -1.8796,1.4342 -0.705,0.3324 -1.4594,0.5182 -2.2348,0.583 l -0.0391,0.003 h -0.0877 l -0.3959,0.0174 -0.0963,0.009 h -0.0439 c -1.18,0 -2.2501,-0.3686 -3.1588,-1.1233 -0.8432,-0.7005 -1.4024,-1.6351 -1.7609,-2.6611 -0.2431,-0.6935 -0.3914,-1.4234 -0.4817,-2.1517 -0.1008,-0.8159 -0.1361,-1.6438 -0.1361,-2.4656 0,-1.6545 0.1814,-3.303 0.5801,-4.9101 0.3861,-1.5553 0.974,-3.0455 1.7664,-4.4385 0.7925,-1.3935 1.774,-2.6593 2.9117,-3.7882 1.1834,-1.1746 2.5196,-2.183 3.9441,-3.0462 1.4479,-0.8772 2.9775,-1.6088 4.5638,-2.1986 1.6493,-0.6133 3.3513,-1.0743 5.0802,-1.4 1.8153,-0.3411 3.6577,-0.5352 5.5024,-0.6141 1.9802,-0.085 3.9705,-0.0386 5.9566,0.114 l 0.0871,0.009 0.1155,0.0137 c 0.369,0.0407 0.7363,0.0855 1.1046,0.1331 0.38,0.0494 0.7592,0.1038 1.1377,0.1629 0.3846,0.0603 0.7695,0.1242 1.152,0.1967 0.3792,0.0719 0.7575,0.1524 1.1349,0.2358 0.4774,0.106 0.9565,0.2073 1.4351,0.3086 l 0.009,2e-4 c 2.3856,-3.6481 4.9687,-7.1901 7.8108,-10.4947 2.7774,-3.2295 5.8348,-6.2718 9.2188,-8.8667 3.0961,-2.374 6.4801,-4.3768 10.1414,-5.746 3.4146,-1.2769 6.9738,-1.9646 10.6212,-1.9646 1.6092,0 3.2398,0.1731 4.7854,0.6355 1.4486,0.4329 2.7886,1.1159 3.9362,2.1076 1.168,1.0114 2.0353,2.2531 2.605,3.6881 0.5832,1.4692 0.819,3.0387 0.819,4.6142 0,1.9298 -0.2202,4.1412 -1.1421,5.8706 -1.0209,1.9156 -2.6527,2.9713 -4.8357,2.9713 -0.505,0 -1.0111,-0.049 -1.5032,-0.166 -1.0693,-0.2547 -1.9766,-0.8039 -2.6303,-1.6926 -0.6249,-0.8494 -0.8868,-1.8443 -0.8868,-2.8913 0,-0.5712 0.0782,-1.1433 0.2019,-1.7006 0.0648,-0.6336 0.1003,-1.3254 0.016,-1.9559 -0.0238,-0.1776 -0.0758,-0.4822 -0.1682,-0.6694 l -0.0294,-0.0434 c -0.0113,-0.006 -0.0255,-0.0124 -0.0353,-0.0164 -0.2485,-0.1023 -0.6483,-0.1178 -0.9128,-0.1178 -1.4217,0 -2.8526,0.6041 -4.0616,1.3077 -2.0252,1.1789 -3.8954,2.8828 -5.5126,4.5652 -2.3655,2.4614 -4.4972,5.2206 -6.4613,8.0091 -2.0622,2.9273 -3.9816,5.9662 -5.8077,9.048 0.8281,0.5112 1.6407,1.0468 2.4359,1.6078 1.5214,1.0739 2.9784,2.2374 4.3575,3.4891 1.5275,1.3866 2.9558,2.879 4.2713,4.4682 1.1237,1.3574 2.1618,2.7834 3.1136,4.2656 l 0.009,-0.005 0.512,0.8322 c 1.1158,1.8136 2.1244,3.6925 3.01,5.6291 0.8498,1.8577 1.5842,3.7687 2.1747,5.7248 0.5818,1.9265 1.0272,3.8921 1.3247,5.8826 0.2942,1.9699 0.4442,3.9592 0.4442,5.951 0,4.5979 -0.6526,9.1778 -2.2482,13.5032 -0.4499,1.2199 -0.9721,2.4098 -1.5659,3.5633 1.6166,-0.6873 3.2114,-1.4255 4.7815,-2.2134 2.0367,-1.0225 4.0287,-2.1227 5.9768,-3.2844 l 0.0742,-0.0466 0.0763,-0.0417 c 1.7647,-1.0194 3.4971,-2.0843 5.2005,-3.2026 1.6083,-1.0557 3.1895,-2.1557 4.7271,-3.3124 1.4333,-1.0788 2.83,-2.2066 4.1806,-3.3873 1.2469,-1.0903 2.4531,-2.2275 3.6087,-3.4147 l 0.0174,-0.0259 0.7448,-0.745 0.003,0.003 c 1.0336,-2.558 2.1682,-5.0771 3.3675,-7.5614 1.4988,-3.1041 3.1038,-6.1591 4.7754,-9.1738 0.587,-1.0566 1.3393,-1.991 2.2482,-2.7871 0.9191,-0.8056 1.9628,-1.4389 3.0849,-1.9199 1.1094,-0.4758 2.2807,-0.7971 3.469,-1.0024 1.2971,-0.2245 2.618,-0.3159 3.9335,-0.3159 1.0223,0 2.057,0.1126 3.0371,0.4117 0.9933,0.3034 1.9022,0.7943 2.6399,1.531 0.8659,0.8612 1.4017,1.9072 1.5758,3.116 0.1632,1.1327 -0.0255,2.2795 -0.4066,3.3498 l -0.0416,0.1176 -0.053,0.1142 -0.1204,0.2605 -0.0351,0.0615 c -0.3017,0.6018 -0.6039,1.2038 -0.912,1.8026 -0.285,0.5535 -0.5705,1.1075 -0.8626,1.6572 l -0.0162,0.0304 -0.0443,0.0704 -0.04,0.0688 c -0.2926,0.5458 -0.5846,1.0925 -0.8828,1.6349 -0.3032,0.5519 -0.6113,1.1009 -0.9217,1.6488 -0.615,1.0858 -1.2175,2.179 -1.8042,3.2806 -0.5931,1.1136 -1.1721,2.235 -1.7362,3.3635 -0.9466,1.8926 -1.8469,3.8099 -2.6767,5.7566 -0.6918,1.6226 -1.3329,3.2716 -1.885,4.9475 -0.424,1.287 -0.8011,2.6051 -1.0639,3.9352 -0.1913,0.9688 -0.3305,1.9776 -0.3305,2.9666 0,0.9448 0.0316,1.9317 0.1769,2.8665 0.0624,0.403 0.1538,0.8675 0.3062,1.2684 0.9787,-0.0794 1.9425,-0.3764 2.8366,-0.7662 1.5437,-0.6727 2.9994,-1.6523 4.317,-2.6929 1.8956,-1.4976 3.6447,-3.2378 5.269,-5.0225 2.0892,-2.2958 4.0289,-4.7449 5.8661,-7.2461 l 0.0344,-0.0521 0.155,-0.1995 c 1.7762,-2.3999 3.481,-4.8526 5.1042,-7.3585 1.6132,-2.4906 3.1458,-5.0335 4.5869,-7.6275 1.405,-2.5292 2.7179,-5.1088 3.9391,-7.7316 1.1949,-2.5659 2.3017,-5.1762 3.3051,-7.8284 0.0716,-0.1839 0.1536,-0.3691 0.2509,-0.5419 0.0994,-0.1762 0.2167,-0.3435 0.3408,-0.5015 0.6515,-0.8331 1.4224,-1.5534 2.292,-2.1554 0.8836,-0.6117 1.8512,-1.0875 2.8614,-1.4498 1.0076,-0.3622 2.0515,-0.614 3.1101,-0.7733 1.1459,-0.1721 2.3073,-0.244 3.4657,-0.244 0.757,0 1.519,0.057 2.2628,0.2009 0.7269,0.1407 1.4359,0.3708 2.09,0.7201 0.8861,0.4727 1.6379,1.1219 2.1669,1.9811 0.535,0.8689 0.7799,1.8368 0.7799,2.8552 0,0.3008 -0.0341,0.6025 -0.0881,0.8984 l 0.0608,0.0212 -0.2909,0.8818 c -0.0737,0.2226 -0.1611,0.4419 -0.2527,0.6567 -0.0914,0.216 -0.1908,0.4287 -0.2956,0.6395 l -0.008,0.0163 c -1.9406,3.8501 -3.7882,7.7549 -5.4768,11.7226 -1.4271,3.3536 -2.7497,6.7654 -3.8734,10.2332 -0.9149,2.8244 -1.7089,5.7107 -2.2619,8.629 -0.4388,2.317 -0.7311,4.6972 -0.7311,7.058 0,1.7529 0.195,4.1997 1.3119,5.6438 0.8428,1.0893 2.1901,1.3765 3.5051,1.3765 4.7836,0 9.7959,-2.5736 13.7028,-5.1266 6.7126,-4.3874 12.957,-10.4398 18.4072,-16.2871 l 0.0113,-0.0122 0.0629,-0.0629 0.0815,-0.0806 c 0.3964,-0.3936 0.8095,-0.7711 1.2436,-1.1226 0.2363,-0.1912 0.4789,-0.3749 0.7288,-0.5481 1.3494,-3.1395 2.7996,-6.2373 4.3137,-9.3003 1.7866,-3.615 3.661,-7.1877 5.5936,-10.7272 l -0.0137,-0.008 0.4045,-0.7062 0.0202,-0.0367 0.005,-0.006 0.0377,-0.0659 c 0.3071,-0.5357 0.6668,-1.0404 1.0625,-1.5139 0.4075,-0.488 0.8585,-0.9402 1.3308,-1.3635 0.4857,-0.4379 0.998,-0.8449 1.5303,-1.2243 0.5759,-0.4108 1.1749,-0.7905 1.7849,-1.1478 0.6037,-0.3538 1.2204,-0.6923 1.8523,-0.9931 0.5813,-0.2767 1.1779,-0.5207 1.7859,-0.7327 l 0.0447,-0.0177 0.0561,-0.0179 c 0.6034,-0.207 1.2165,-0.3717 1.8438,-0.4887 0.6027,-0.1126 1.2168,-0.1819 1.8304,-0.1819 0.6435,0 1.2846,0.0768 1.9045,0.2521 0.649,0.1834 1.2529,0.4739 1.7911,0.8752 0.6699,0.493 1.1996,1.116 1.5571,1.8672 0.3475,0.7301 0.5046,1.5157 0.5046,2.3224 0,0.2862 -0.0384,0.5759 -0.0919,0.8571 -0.0466,0.244 -0.106,0.4859 -0.1736,0.725 l -0.0108,0.0382 -0.0264,0.0699 -0.2982,0.933 v 0.0165 l -0.0464,0.1422 c -0.0429,0.1315 -0.0951,0.2605 -0.1514,0.3875 -0.057,0.1279 -0.1178,0.2577 -0.1882,0.3788 l -0.3046,0.524 c -0.3201,0.5627 -0.6348,1.1287 -0.9459,1.6966 -0.4537,0.8275 -0.9026,1.658 -1.3409,2.4937 -0.5074,0.9676 -1.0046,1.9408 -1.4981,2.9155 -0.5457,1.0778 -1.0872,2.1578 -1.6203,3.2417 -0.5959,1.2133 -1.1845,2.4306 -1.7726,3.6478 -0.6435,1.3313 -1.2802,2.6666 -1.9166,4.0016 -0.7274,1.5244 -1.4547,3.0493 -2.1757,4.5766 -0.6868,1.4554 -1.3732,2.911 -2.0542,4.3692 -0.4447,1.1808 -0.862,2.3726 -1.2394,3.5765 -0.3326,1.0606 -0.6338,2.1328 -0.8858,3.2156 -0.2078,0.8913 -0.3875,1.7945 -0.5079,2.7021 -0.0979,0.7391 -0.1552,1.4853 -0.1552,2.231 0,0.0304 0,0.061 3e-4,0.0919 0.329,-0.1927 0.6496,-0.4054 0.9532,-0.616 0.9118,-0.6329 1.7816,-1.347 2.6171,-2.0765 1.127,-0.985 2.2108,-2.0299 3.269,-3.0879 1.7883,-1.7885 3.4205,-3.8348 4.9337,-5.8581 2.1723,-2.9049 4.2029,-5.9319 6.1532,-8.9896 2.5389,-3.9811 4.9605,-8.043 7.3161,-12.1348 2.8595,-4.9664 5.6242,-9.989 8.3327,-15.039 0.3679,-0.9038 0.8609,-1.7449 1.4924,-2.4904 0.6673,-0.7879 1.4589,-1.4408 2.3554,-1.9533 l 0.0228,-0.013 0.0643,-0.032 0.0615,-0.0325 c 0.8574,-0.4685 1.7762,-0.7957 2.7287,-1.0088 1.0075,-0.225 2.0386,-0.3239 3.0701,-0.3239 1.0703,0 2.1467,0.1069 3.1847,0.3736 0.9999,0.2565 1.9552,0.6623 2.793,1.271 l 0.0175,0.0124 0.0883,0.0707 0.0956,0.0773 c 0.8696,0.679 1.5445,1.5204 2.0021,2.5245 0.4589,1.0071 0.6607,2.0861 0.6607,3.1899 v 0.0926 l -0.006,0.0296 c 0.0752,3.0837 -0.1121,6.2079 -0.3978,9.277 -0.3743,4.0164 -0.9349,8.0251 -1.5842,12.0055 -0.5413,3.318 -1.2562,6.6394 -1.9823,9.9216 -0.8979,4.0579 -1.8523,8.1043 -2.8173,12.1466 -0.4763,1.9945 -0.9559,3.9884 -1.4357,5.9822 -0.0709,0.294 -0.1415,0.5879 -0.2122,0.8819 5.9236,-2.9643 10.0578,-8.5346 13.3415,-14.1724 0.007,-0.0311 0.0134,-0.0625 0.0205,-0.0936 v -0.009 l 0.0245,-0.1053 c 0.0756,-0.3243 0.1632,-0.6458 0.2626,-0.9636 0.2954,-0.9447 0.6977,-1.8471 1.2135,-2.6922 0.5264,-0.8628 1.1619,-1.6466 1.8897,-2.3474 0.6037,-0.5817 1.2423,-1.1291 1.9185,-1.6245 0.6454,-0.4732 1.3247,-0.9026 2.0381,-1.2655 0.7191,-0.3663 1.4698,-0.6671 2.2457,-0.8892 0.7662,-0.2195 1.5517,-0.358 2.3469,-0.4136 l 0.0327,-0.002 h 0.038 l 0.0492,-0.002 c 1.755,-0.086 3.1777,0.6088 4.1059,2.1036 0.6812,1.0967 0.9184,2.4517 1.0074,3.7213 0.0375,0.5375 0.0497,1.0802 0.058,1.6186 0.009,0.5714 0.0153,1.1424 0.0153,1.7138 v 0.9422 h -0.007 c 0.005,1.8398 0.0448,3.6836 0.2742,5.5095 0.2356,1.8619 0.6939,3.9238 1.7063,5.5286 0.129,0.2039 0.2682,0.4075 0.4239,0.5919 0.0224,0.0266 0.0512,0.061 0.0818,0.0949 0.8142,0.0231 1.6306,-0.0184 2.4364,-0.1383 0.8147,-0.1215 1.6149,-0.3241 2.383,-0.6225 0.7589,-0.2951 1.4766,-0.6809 2.149,-1.1398 0.738,-0.5036 1.4142,-1.0917 2.0318,-1.7361 0.7994,-0.8348 1.5381,-1.7296 2.227,-2.6572 0.7931,-1.0677 1.524,-2.1829 2.2061,-3.3244 0.7754,-1.299 1.4905,-2.6347 2.1561,-3.9936 0.7424,-1.5154 1.4217,-3.0636 2.0596,-4.626 l 0.0132,-0.0325 0.0299,-0.0598 0.004,-0.0106 c 0.3182,-0.7834 0.6296,-1.5701 0.9259,-2.3622 0.2938,-0.7846 0.5783,-1.5727 0.8529,-2.3641 0.2775,-0.8011 0.542,-1.6074 0.8046,-2.4136 0.2506,-0.7698 0.4966,-1.5409 0.7375,-2.3137 l 0.0349,-0.1117 c 0.004,-0.0115 0.007,-0.0233 0.0108,-0.0348 l 0.0229,-0.073 c 0.263,-0.8452 0.5367,-1.687 0.8248,-2.5239 0.2798,-0.8121 0.5726,-1.6198 0.8781,-2.4227 0.3043,-0.7994 0.6209,-1.5944 0.9521,-2.3834 0.3302,-0.7865 0.6769,-1.5664 1.034,-2.3413 0.3549,-0.7686 0.7302,-1.5277 1.1249,-2.2765 0.3882,-0.7354 0.7971,-1.4599 1.2248,-2.1726 6.0282,-10.0508 13.601,-12.982 24.9995,-12.3181 0.6633,0.0389 1.3264,0.0905 1.9885,0.1513 0.639,0.0588 1.2771,0.1286 1.9133,0.2108 0.5992,0.077 1.1986,0.1615 1.7938,0.2635 0.6007,0.103 1.2011,0.2262 1.7899,0.3847 0.53,0.1427 1.0557,0.3184 1.5581,0.5429 0.8409,0.3771 1.6109,0.9014 2.1875,1.6285 0.6486,0.8178 0.9817,1.7659 0.9817,2.81 0,0.973 -0.1701,1.939 -0.6065,2.8147 -0.3298,0.6619 -0.7856,1.2255 -1.3662,1.6728 -0.2876,0.5111 -0.569,1.0256 -0.8453,1.5428 v 0.006 l -0.1098,0.2073 c -0.3931,0.7408 -0.7768,1.4877 -1.1419,2.2428 -0.3808,0.7872 -0.7436,1.5831 -1.0898,2.386 -0.3305,0.7658 -0.647,1.5383 -0.9415,2.3189 -0.3041,0.8058 -0.5997,1.6151 -0.8832,2.4284 -0.2735,0.7844 -0.5392,1.572 -0.7912,2.3639 -0.2549,0.8004 -0.4977,1.6045 -0.7314,2.4112 -0.232,0.8025 -0.4529,1.6081 -0.6635,2.4167 -0.2129,0.8157 -0.4124,1.6353 -0.6056,2.4557 -0.1969,0.8381 -0.3865,1.6778 -0.5638,2.5201 -0.1713,0.8154 -0.3347,1.6323 -0.4883,2.451 0.4626,-0.5189 0.9257,-1.0371 1.3894,-1.555 1.3772,-1.5377 2.757,-3.0734 4.1446,-4.6018 5.864,-6.4571 11.9595,-12.7335 18.0129,-19.0147 l 0.0132,-0.0136 2.6505,-2.7509 c 0.9012,-0.9353 1.8314,-1.8469 2.8039,-2.7085 0.8423,-0.7457 1.7242,-1.4587 2.656,-2.0897 0.9084,-0.6166 1.8814,-1.1668 2.9103,-1.5564 0.9918,-0.3755 2.0313,-0.6047 3.0952,-0.6047 0.8654,0 1.7006,0.1809 2.4758,0.5689 0.7897,0.395 1.438,0.9728 1.9446,1.6968 0.4049,0.5804 0.6894,1.2262 0.8677,1.91 0.1724,0.6602 0.2485,1.3407 0.2485,2.0226 0,0.3985 -0.0271,0.7996 -0.065,1.1963 -0.0393,0.4112 -0.0916,0.8213 -0.1637,1.2264 -0.0711,0.4082 -0.1616,0.8134 -0.261,1.2157 -0.106,0.4294 -0.2263,0.8557 -0.3563,1.2789 -1.2331,4.0085 -2.4138,8.0345 -3.5112,12.0825 -0.9092,3.3525 -1.7623,6.7252 -2.5062,10.1181 -0.5787,2.6414 -1.1011,5.3117 -1.4747,7.9905 -0.2695,1.9305 -0.4741,3.918 -0.4741,5.8689 0,1.454 0.0906,2.9836 0.4183,4.4039 0.2004,0.8689 0.5144,1.8043 1.0375,2.5363 0.3197,0.4475 0.7194,0.7886 1.2194,1.0171 0.6541,0.2986 1.4298,0.3849 2.1418,0.3849 1.3162,0 2.6272,-0.1522 3.9137,-0.4271 1.4342,-0.3067 2.8359,-0.7591 4.1919,-1.3166 1.5659,-0.6433 3.0771,-1.4248 4.5295,-2.2935 1.6516,-0.9876 3.2349,-2.0935 4.7551,-3.2728 1.1223,-0.8703 2.2258,-1.9595 3.2655,-2.9311 l 0.071,-0.0664 c 0.2518,-0.2337 0.5017,-0.4706 0.7504,-0.7071 0.5528,-0.5262 1.1061,-1.0524 1.6851,-1.5501 0.6736,-0.619 1.3428,-1.2432 2.0077,-1.8714 0.7561,-0.7141 1.5079,-1.4327 2.256,-2.1551 0.8428,-0.8143 1.6815,-1.6328 2.5168,-2.4548 0.9044,-0.8906 1.8047,-1.785 2.7016,-2.6824 0.7726,-0.7754 1.6384,-1.5091 2.5931,-2.0518 0.9506,-0.5403 1.994,-0.8945 3.0964,-0.8945 0.6508,0 1.2935,0.1137 1.9057,0.3332 0.6207,0.2224 1.1926,0.5522 1.6943,0.9815 0.4809,0.4129 0.883,0.9038 1.1963,1.4545 0.3055,0.5366 0.52,1.1162 0.6486,1.7194 0.1133,0.5305 0.1687,1.0729 0.1652,1.6154 0,0.5422 -0.065,1.0839 -0.1946,1.6106 l -0.01,0.045 -0.024,0.0881 c -0.1448,0.5318 -0.3533,1.0439 -0.623,1.5246 -0.2723,0.485 -0.607,0.9328 -0.9897,1.3365 -3.905,4.1064 -8.0048,8.0628 -12.3536,11.699 -3.7124,3.1042 -7.6419,6.0065 -11.8067,8.4776 -3.6231,2.15 -7.4685,3.998 -11.4915,5.2678 -3.589,1.1327 -7.3084,1.7988 -11.0779,1.7988 -6.5591,0 -12.0359,-2.3535 -15.7579,-7.8496 -4.0678,-6.006 -4.9803,-14.4112 -4.9803,-21.481 0,-0.748 0.013,-1.4968 0.0318,-2.2449 -2.3507,2.5584 -4.4359,5.4389 -6.4366,8.2507 -3.2853,4.6176 -6.9435,10.2185 -11.3057,13.8432 -0.8055,0.6696 -1.7286,1.1671 -2.7113,1.5237 -0.895,0.3248 -1.8252,0.5549 -2.7739,0.6458 -0.9276,0.0893 -1.8582,0.0441 -2.7671,-0.1655 -0.9509,-0.2193 -1.8415,-0.6021 -2.6499,-1.1481 -0.5391,-0.3639 -1.026,-0.7914 -1.4638,-1.2669 l -0.0396,0.0308 -0.5785,-0.7678 c -0.1145,-0.1522 -0.2174,-0.3128 -0.3088,-0.4798 l -0.1109,0.0318 -0.2481,-0.9248 c -0.1973,-0.7351 -0.3467,-1.4839 -0.4619,-2.2362 -0.1271,-0.8312 -0.2117,-1.6702 -0.2708,-2.509 -0.0639,-0.9077 -0.0909,-1.8197 -0.1001,-2.7296 -0.0102,-1.0185 0.006,-2.0372 0.0431,-3.055 0.0391,-1.0875 0.0984,-2.1745 0.183,-3.2594 0.0883,-1.1301 0.1993,-2.2583 0.3305,-3.384 0.2786,-2.3966 0.6538,-4.781 1.0914,-7.1533 0.228,-1.2392 0.4728,-2.4753 0.742,-3.706 0.1738,-0.7936 0.354,-1.5857 0.5417,-2.3759 -0.8585,1.2246 -1.559,2.5846 -2.1585,3.8692 -1.3793,2.9563 -2.4788,6.044 -3.8263,9.0195 -0.354,0.7816 -0.7238,1.556 -1.1172,2.3182 -0.7026,1.3614 -1.4384,2.7054 -2.2042,4.0322 -0.7452,1.291 -1.518,2.5672 -2.3269,3.8195 -0.794,1.2296 -1.6221,2.4374 -2.4873,3.6179 -0.8227,1.1226 -1.6791,2.2212 -2.5742,3.2875 -0.8597,1.0232 -1.7554,2.0162 -2.6882,2.9734 -0.8932,0.9167 -1.8217,1.7993 -2.7864,2.6404 -0.9438,0.8228 -1.926,1.6038 -2.9511,2.3229 -0.7478,0.5246 -1.519,1.0159 -2.3114,1.4705 l 0.009,0.017 -0.8254,0.439 c -1.0173,0.541 -2.0701,1.014 -3.1496,1.4177 -1.0524,0.3936 -2.1302,0.7201 -3.2279,0.9613 l -0.9136,0.2006 -0.007,-0.0285 c -0.8659,0.1437 -1.7414,0.2231 -2.6204,0.2344 -1.1812,0.0146 -2.3634,-0.09 -3.5227,-0.3173 -1.1603,-0.227 -2.294,-0.5733 -3.3902,-1.0156 -1.1402,-0.4603 -2.2374,-1.0211 -3.2843,-1.6653 -0.7307,-0.4494 -1.4236,-0.9582 -2.0782,-1.5119 -0.6682,-0.5653 -1.2922,-1.182 -1.8751,-1.8339 -0.5924,-0.6619 -1.1415,-1.3617 -1.6469,-2.0921 -0.5152,-0.7443 -0.9877,-1.5178 -1.418,-2.3139 -2.1801,3.0342 -4.8415,5.9125 -7.5177,8.4365 -3.8271,3.6094 -8.4891,7.2443 -13.2751,9.4963 -1.754,6.459 -3.7342,12.6994 -6.5009,18.8109 -2.1245,4.6934 -4.6128,9.2438 -7.0546,13.7782 -0.318,0.5907 -0.6362,1.1814 -0.954,1.7722 -3.6461,6.7805 -7.728,13.3289 -12.2659,19.5491 -4.3401,5.9495 -9.0978,11.5963 -14.2811,16.8291 -2.8321,2.8587 -5.7738,5.6087 -8.8247,8.2326 -3.0243,2.6008 -6.1568,5.0751 -9.3898,7.4115 -3.2262,2.3311 -6.553,4.5221 -9.9723,6.5593 -3.3261,1.9816 -6.7388,3.8162 -10.225,5.4998 l -0.3361,0.168 c -3.8292,1.9135 -7.7488,3.6466 -11.7514,5.1649 -3.8131,1.4462 -7.7024,2.6908 -11.6531,3.7027 -3.8197,0.9784 -7.6951,1.7371 -11.6055,2.2452 -3.8014,0.4934 -7.6317,0.7558 -11.4654,0.7558 -2.8067,0 -5.616,-0.1724 -8.3961,-0.5615 -2.5761,-0.3606 -5.1279,-0.9094 -7.6095,-1.6914 -2.3693,-0.7465 -4.6663,-1.7056 -6.8491,-2.8927 -2.1201,-1.1532 -4.1156,-2.5156 -5.9523,-4.0812 -1.7793,-1.5166 -3.4071,-3.2024 -4.8279,-5.0603 -1.3814,-1.8066 -2.5537,-3.7576 -3.4886,-5.8306 -3.2318,-7.1628 -3.8317,-14.2031 -0.8776,-21.5251 5.698,-14.1248 21.5432,-26.6883 34.0641,-34.8858 4.4126,-2.8896 8.9712,-5.5599 13.6177,-8.055 5.0858,-2.7311 10.286,-5.2527 15.5551,-7.6103 27.1255,-12.1373 55.9584,-19.8362 83.5771,-30.7132 0.3064,-1.3098 0.6093,-2.6206 0.913,-3.9312 0.5848,-2.5226 1.1734,-5.0455 1.7434,-7.5712 0.3552,-1.5743 0.7012,-3.1508 1.047,-4.727 0.3757,-1.7129 0.7481,-3.4264 1.115,-5.1409 l 0.4586,-2.1488 c -1.3211,1.8803 -2.6868,3.7293 -4.1014,5.5399 -2.7054,3.4629 -5.5981,6.7925 -8.7174,9.8898 -2.8203,2.8006 -5.8305,5.4153 -9.0485,7.737 -0.9381,0.701 -1.9055,1.3629 -2.9134,1.96 -0.9336,0.5532 -1.9017,1.0533 -2.9035,1.4726 -0.9694,0.4058 -1.9724,0.7395 -2.9996,0.9657 -0.9836,0.2167 -1.9865,0.3363 -2.9941,0.3363 -1.625,0 -3.2342,-0.2659 -4.7287,-0.92 -1.4729,-0.6444 -2.7088,-1.6137 -3.6987,-2.8814 -0.9617,-1.233 -1.6071,-2.6547 -2.0127,-4.1598 -0.4428,-1.6429 -0.6042,-3.369 -0.6042,-5.0667 0,-0.2709 0.005,-0.542 0.0142,-0.8129 -1.0619,0.8958 -2.1399,1.772 -3.2366,2.6246 -2.7097,2.1067 -5.5399,4.0756 -8.5025,5.8106 -3.5847,2.1001 -7.4217,3.8819 -11.4353,4.9859 -3.4989,0.9626 -7.1326,1.3977 -10.755,1.0649 -1.0881,-0.0552 -2.1601,-0.2448 -3.2014,-0.5653 -1.0684,-0.3286 -2.0888,-0.7879 -3.0512,-1.3556 -0.9702,-0.5723 -1.8756,-1.2476 -2.7165,-1.9962 -0.8948,-0.7966 -1.719,-1.6754 -2.4802,-2.606 l -0.0356,-0.0445 -0.024,-0.0306 c -0.8838,-1.0355 -1.6698,-2.1479 -2.3483,-3.328 -0.7005,-1.2182 -1.2854,-2.4986 -1.7428,-3.8273 -0.4711,-1.3689 -0.8063,-2.7819 -1.0295,-4.2114 -0.0653,-0.4174 -0.1211,-0.8364 -0.1678,-1.2561 -0.3853,0.4147 -0.7725,0.8279 -1.1619,1.2391 -1.767,1.8655 -3.5781,3.694 -5.4523,5.4518 -1.9615,1.8401 -4.0088,3.6217 -6.1673,5.2281 -1.7152,1.2764 -3.5515,2.4831 -5.4773,3.3974 l -0.0744,0.0372 -0.3406,0.147 c -0.8338,0.3736 -1.6794,0.7219 -2.5375,1.0352 -0.8931,0.3258 -1.8002,0.6141 -2.72,0.8553 -0.8906,0.2329 -1.7941,0.4227 -2.7059,0.5516 -0.8576,0.1208 -1.7248,0.1929 -2.5914,0.1929 -4.0508,0 -7.8423,-1.1195 -10.5842,-4.2195 -1.2781,-1.445 -2.1559,-3.143 -2.7134,-4.9838 -0.6103,-2.0136 -0.8315,-4.1495 -0.8315,-6.2477 0,-0.2576 0.004,-0.5156 0.0108,-0.7732 -0.8133,0.569 -1.6334,1.1277 -2.4614,1.6751 -2.3134,1.5292 -4.6832,2.973 -7.0979,4.3368 -2.4322,1.3739 -4.9092,2.6694 -7.4299,3.8734 l -0.0215,0.0102 -0.1253,0.0523 c -2.7073,1.261 -5.4614,2.4237 -8.2611,3.4643 -2.5673,0.9544 -5.1774,1.8054 -7.8253,2.5071 -2.4675,0.6543 -4.9718,1.184 -7.4996,1.5435 -2.3392,0.3328 -4.7023,0.5236 -7.0657,0.5236 -5.7658,0 -11.4412,-1.0847 -16.5272,-3.8855 -3.5427,-1.951 -6.5202,-4.5857 -8.9736,-7.7592 -0.6772,1.2637 -1.3579,2.5253 -2.043,3.7847 -0.937,1.7232 -1.8804,3.4431 -2.8308,5.159 -0.9365,1.6914 -1.8768,3.3812 -2.8264,5.0656 l -0.0172,0.0308 -0.0528,0.0792 -0.0391,0.0626 c -1.0072,1.7852 -2.0132,3.5713 -3.0243,5.3541 -0.9698,1.71 -1.9416,3.4188 -2.9158,5.1263 -1.0218,1.7898 -2.0428,3.5799 -3.0688,5.367 -1.0725,1.8706 -2.1541,3.7363 -3.2319,5.6039 v 0.009 l -0.1279,0.2197 c -2.1613,3.7131 -4.4498,7.3552 -6.8916,10.8904 -2.2452,3.2507 -4.6216,6.4159 -7.1572,9.4461 -2.3443,2.8025 -4.8274,5.4931 -7.4664,8.0211 -2.451,2.3483 -5.0374,4.5561 -7.7685,6.5643 l -0.0377,0.0282 -0.1413,0.0994 c -3.0218,2.2504 -6.2117,4.268 -9.5557,6.0051 -3.3607,1.7456 -6.8629,3.202 -10.4669,4.3643 -3.6648,1.182 -7.4207,2.0565 -11.228,2.6315 -3.942,0.5954 -7.9263,0.8739 -11.9124,0.8739 -2.3358,0 -4.6726,-0.163 -6.9805,-0.5265 -2.146,-0.3373 -4.2677,-0.8482 -6.3141,-1.5805 -1.9632,-0.7026 -3.848,-1.6021 -5.6162,-2.7084 -1.742,-1.0894 -3.3496,-2.3693 -4.8045,-3.8205 l -0.0728,-0.0725 c -1.2823,-1.2161 -2.456,-2.5439 -3.4804,-3.9851 -1.0361,-1.4583 -1.9151,-3.0192 -2.617,-4.6649 -0.7045,-1.6518 -1.2258,-3.3722 -1.569,-5.1348 -0.3538,-1.8169 -0.5189,-3.6643 -0.5189,-5.5149 0,-3.6523 0.656,-7.2104 2.0349,-10.5925 1.3828,-3.3917 3.4228,-6.4203 5.9054,-9.1024 0.2563,-0.3507 0.5396,-0.6819 0.8529,-0.9834 0.3634,-0.3495 0.7639,-0.6581 1.1968,-0.9177 0.4904,-0.293 1.0152,-0.5205 1.5659,-0.6729 0.5521,-0.1522 1.1192,-0.232 1.6918,-0.232 1.5172,0 2.9459,0.4174 4.036,1.5079 1.088,1.088 1.5006,2.5168 1.5006,4.0296 0,1.0117 -0.2621,1.9755 -0.7207,2.8743 -0.4487,0.8793 -1.0748,1.6646 -1.7701,2.3604 -0.5978,0.5997 -1.1259,1.2608 -1.5765,1.9776 -0.4628,0.7363 -0.8399,1.5206 -1.135,2.3387 -0.3359,0.9315 -0.5681,1.8996 -0.7213,2.8773 -0.1775,1.1325 -0.2442,2.2876 -0.2442,3.433 0,2.1531 0.2961,4.2996 1.0215,6.3325 0.6739,1.8883 1.6863,3.5875 3.0109,5.0931 1.6394,1.7449 3.5784,3.054 5.808,3.9281 2.5306,0.9923 5.2678,1.3605 7.9742,1.3605 1.1942,0 2.3884,-0.0578 3.5762,-0.1802 1.2034,-0.1244 2.3999,-0.3098 3.5847,-0.5545 1.222,-0.2525 2.4308,-0.5684 3.6228,-0.9372 1.2439,-0.3851 2.4694,-0.8286 3.674,-1.3237 1.2672,-0.5206 2.5127,-1.0946 3.7354,-1.7122 1.2733,-0.6435 2.5224,-1.3348 3.7456,-2.069 1.2818,-0.7688 2.5341,-1.5873 3.7611,-2.4406 1.2865,-0.8946 2.5469,-1.8266 3.7754,-2.7994 1.2785,-1.0126 2.5276,-2.0626 3.7491,-3.1433 1.1716,-1.0357 2.317,-2.1015 3.4387,-3.1913 v -0.006 l 0.2833,-0.2773 c 1.2531,-1.2255 2.4784,-2.4797 3.6712,-3.7641 1.229,-1.323 2.4265,-2.675 3.5943,-4.0522 1.2126,-1.43 2.3931,-2.8868 3.5411,-4.3688 1.1798,-1.5238 2.3262,-3.0731 3.441,-4.6451 1.153,-1.6245 2.273,-3.2726 3.3607,-4.9417 1.0474,-1.6075 2.0659,-3.2339 3.0566,-4.877 l 0.2009,-0.3385 c 1.2858,-2.1684 2.5691,-4.3382 3.8429,-6.5136 1.261,-2.1529 2.5141,-4.3107 3.7625,-6.471 1.2408,-2.1463 2.476,-4.296 3.7043,-6.4493 1.0373,-1.8187 2.069,-3.6408 3.0974,-5.4646 -1.6451,1.1433 -3.3325,2.2261 -5.0653,3.2276 -3.6116,2.0876 -7.4787,3.852 -11.5191,4.9233 -3.5418,0.9393 -7.1929,1.3322 -10.8447,0.9393 h -0.008 l -0.0516,-0.006 c -1.323,-0.1463 -2.6163,-0.4617 -3.8628,-0.9281 -1.2757,-0.4772 -2.4854,-1.1091 -3.6215,-1.8586 -1.1689,-0.7695 -2.255,-1.658 -3.261,-2.6298 -1.0887,-1.0515 -2.0867,-2.1967 -3.0071,-3.3972 l -0.0194,-0.0252 -0.0346,-0.0523 -0.0146,-0.0203 -0.0438,-0.0527 -0.0259,-0.0382 c -0.9648,-1.4255 -1.8188,-2.9233 -2.5686,-4.4724 -0.7744,-1.5996 -1.4368,-3.2512 -1.9922,-4.9388 -0.227,-0.6894 -0.4364,-1.3847 -0.6293,-2.085 -0.3237,0.3875 -0.6494,0.773 -0.9778,1.1563 -0.7285,0.8503 -1.4707,1.6885 -2.2227,2.5179 -0.7477,0.8246 -1.508,1.6379 -2.285,2.435 -0.7698,0.7893 -1.5539,1.5647 -2.3524,2.3245 -0.7994,0.7613 -1.6144,1.5066 -2.4416,2.2374 -0.8166,0.722 -1.6438,1.4331 -2.4875,2.1232 l -0.021,0.0172 -0.1479,0.1079 c -1.4368,1.1447 -2.9183,2.2418 -4.455,3.2495 -1.3522,0.8865 -2.7551,1.7074 -4.2107,2.4138 -1.3457,0.6517 -2.7495,1.2111 -4.195,1.5988 -1.3164,0.3526 -2.6748,0.5672 -4.0395,0.5672 -1.7857,0 -3.556,-0.2881 -5.2012,-0.9999 -1.6092,-0.696 -2.9655,-1.7392 -4.0494,-3.1171 -1.0656,-1.3534 -1.7746,-2.9249 -2.2223,-4.5817 -0.0801,-0.2959 -0.1517,-0.5938 -0.2156,-0.8937 -0.0744,0.0495 -0.1491,0.0987 -0.2235,0.148 -1.3129,0.8637 -2.655,1.6848 -4.0298,2.446 -2.8967,1.6043 -5.9521,2.966 -9.1331,3.8989 -2.8776,0.844 -5.8487,1.3367 -8.8514,1.3367 -3.0026,0 -5.9408,-0.5672 -8.617,-1.9634 -2.6305,-1.3725 -4.7077,-3.3925 -6.3056,-5.8801 -1.6954,-2.6396 -2.7525,-5.6743 -3.4153,-8.7265 -0.8096,-3.7288 -1.0783,-7.6289 -1.0783,-11.438 0,-0.3736 0.0245,-0.7516 0.0537,-1.1238 0.0372,-0.4748 0.0869,-0.9492 0.1413,-1.4219 0.0299,-0.2617 0.0619,-0.5229 0.0954,-0.7842 l -1.5803,0.3058 c -0.4692,0.0954 -0.9381,0.1828 -1.4087,0.2713 -0.4831,0.0909 -0.9667,0.1823 -1.4512,0.2678 -0.4864,0.0858 -0.9744,0.1654 -1.4617,0.2457 -0.4848,0.0803 -0.9702,0.1611 -1.4559,0.236 l -10.6556,2.0485 c -0.6536,1.4048 -1.3063,2.8105 -1.9557,4.2173 -0.835,1.808 -1.6676,3.6168 -2.5,5.4259 l -0.0705,0.1531 -0.01,0.01 -1.8629,3.9592 c -0.0884,0.1882 -0.192,0.3693 -0.3088,0.542 -0.0928,0.1366 -0.1922,0.2692 -0.3003,0.3941 -0.176,0.2324 -0.339,0.4762 -0.4935,0.7231 -0.2063,0.33 -0.3948,0.6717 -0.5712,1.018 -0.2138,0.4206 -0.4136,0.8486 -0.5938,1.2846 -0.1948,0.4713 -0.3731,0.9495 -0.5339,1.4335 -0.2245,0.6765 -0.4685,1.3473 -0.7394,2.0066 -0.2542,0.6192 -0.5274,1.233 -0.8312,1.8294 -0.2775,0.5446 -0.5811,1.076 -0.9066,1.5934 -0.2579,0.4103 -0.5295,0.8126 -0.8188,1.2015 -0.2433,0.5053 -0.5363,0.9848 -0.8799,1.4288 -0.4221,0.545 -0.9165,1.0258 -1.4778,1.4271 -0.6096,0.4346 -1.2778,0.767 -1.9946,0.9839 -0.7115,0.215 -1.4481,0.314 -2.1907,0.314 -1.3888,0 -2.7092,-0.3369 -3.9385,-0.9695 l -0.0739,-0.0368 -0.0851,-0.048 c -0.5448,-0.2944 -1.0561,-0.6393 -1.5383,-1.0284 -0.5064,-0.4089 -0.9744,-0.8649 -1.408,-1.3499 -0.4266,-0.4769 -0.8324,-0.981 -1.1834,-1.5164 -0.3385,-0.5156 -0.6308,-1.062 -0.8564,-1.6365 l -0.3498,-0.8906 0.0568,-0.0212 c -0.0978,-0.3811 -0.1637,-0.7699 -0.192,-1.1642 -0.0506,-0.7107 0.0177,-1.4178 0.2087,-2.1088 -2.1764,1.5939 -4.4279,3.094 -6.7624,4.4434 -3.6115,2.0874 -7.4784,3.852 -11.5188,4.9235 -3.5421,0.9391 -7.1929,1.332 -10.845,0.9391 h -0.007 l -0.0516,-0.006 c -1.323,-0.1461 -2.6161,-0.4615 -3.8626,-0.9281 -1.2759,-0.4772 -2.4854,-1.1091 -3.6219,-1.8586 -1.1685,-0.7698 -2.2549,-1.658 -3.2608,-2.6298 -1.0885,-1.0515 -2.0865,-2.1967 -3.0069,-3.3972 l -0.0182,-0.0238 -0.0355,-0.0532 -0.0147,-0.0203 -0.0433,-0.052 -0.0268,-0.0394 c -0.9648,-1.4255 -1.8189,-2.9235 -2.5686,-4.4724 -0.7742,-1.5996 -1.4368,-3.2512 -1.992,-4.9388 -0.2273,-0.6897 -0.4364,-1.385 -0.6293,-2.085 -0.3237,0.3875 -0.6497,0.773 -0.978,1.1563 -0.7285,0.8503 -1.4707,1.6885 -2.2228,2.5179 -0.7476,0.8246 -1.5079,1.6382 -2.285,2.435 -0.7699,0.7893 -1.5536,1.5649 -2.3523,2.3245 -0.7994,0.7613 -1.6142,1.5063 -2.4414,2.2377 -0.8168,0.7214 -1.644,1.4325 -2.4875,2.1229 l -0.0214,0.0174 -0.0945,0.0683 -0.0532,0.0394 c -1.4368,1.1449 -2.9181,2.2418 -4.4548,3.2492 -1.3522,0.8868 -2.7551,1.7079 -4.211,2.4141 -1.3456,0.6517 -2.7494,1.2111 -4.1949,1.5988 -1.3165,0.3529 -2.6746,0.5672 -4.0396,0.5672 -1.7856,0 -3.5557,-0.2883 -5.2009,-0.9999 -1.6095,-0.696 -2.9655,-1.7392 -4.0497,-3.1171 -1.0655,-1.3536 -1.7743,-2.9249 -2.222,-4.5817 -0.4954,-1.8311 -0.6737,-3.7583 -0.6737,-5.6509 0,-0.2824 0.004,-0.5648 0.0127,-0.847 -0.0348,0.0212 -0.0695,0.0422 -0.1043,0.0634 -1.6745,1.0147 -3.3845,1.9724 -5.1317,2.8566 -3.173,1.6048 -6.4637,2.9787 -9.8555,4.0492 -2.9346,0.9259 -5.937,1.6236 -8.9828,2.0617 -1.9868,2.0348 -4.1007,3.9512 -6.3549,5.6861 -2.3054,1.7746 -4.759,3.3605 -7.3585,4.6706 -2.5353,1.2778 -5.195,2.2845 -7.9539,2.9607 -2.6922,0.66 -5.444,0.9989 -8.2159,0.9989 -2.9734,0 -5.9898,-0.362 -8.8082,-1.3418 -2.5684,-0.893 -4.8696,-2.2737 -6.7713,-4.2242 -1.9067,-1.9564 -3.2352,-4.3026 -4.0897,-6.8891 -0.9476,-2.8674 -1.2894,-5.9342 -1.2894,-8.9439 0,-1.0967 0.0504,-2.1938 0.1376,-3.287 0.0937,-1.176 0.232,-2.3488 0.4042,-3.5161 0.1658,-1.1247 0.3705,-2.2452 0.5957,-3.3598 0.003,-0.0167 0.007,-0.0334 0.0101,-0.0501 -11.3304,9.2612 -22.3327,20.7376 -36.3486,25.447 -13.6563,4.5883 -24.612,-5.3293 -33.5369,-14.2546 l -0.019,-0.0189 -0.016,-0.0172 c -4.4178,-4.6535 -8.1568,-9.915 -11.2688,-15.5202 -0.1161,-0.2089 -0.2313,-0.4183 -0.3455,-0.6282 -3.6344,7.0943 -6.6639,14.4846 -9.5285,21.917 -0.7276,1.8881 -1.4387,3.7833 -2.1416,5.6824 -0.175,0.4674 -0.4308,0.9015 -0.7629,1.2748 -0.3208,0.3606 -0.7066,0.6586 -1.1346,0.8816 -11.0084,6.1947 -19.0999,-2.6383 -17.8593,-13.4112 -10.5659,9.6456 -23.9601,20.0398 -38.6248,20.0398 -15.7294,0 -26.429,-13.8601 -29.2576,-27.3669 -0.2405,-1.0414 -0.4141,-2.0987 -0.5587,-3.1575 -1.776,-13.0029 0.1248,-26.1908 2.6272,-38.9764 -2.6736,0.0612 -5.355,0.0791 -8.0272,0.1175 -4.8995,0.0705 -6.2447,0.1496 -11.1434,0.2624 -5.3244,0.123 -10.6686,0.2667 -15.9859,0.5677 -1.1932,0.0676 -6.4328,0.3926 -7.4315,0.8903 -18.2237,19.131 -37.8647,36.4856 -57.6974,53.3312 11.9713,1.2067 23.8277,3.1193 35.5962,5.6428 12.9917,2.7858 25.8062,6.2892 38.5139,10.1584 13.5485,4.1257 26.9335,8.7765 40.213,13.695 51.3013,19.0008 102.5676,38.4762 155.2941,53.2337 44.9088,12.5693 90.487,21.51 137.1223,24.0967 97.9924,5.4355 197.9707,-17.9263 287.4782,-56.9458 1.7572,-0.7799 3.7588,-1.0562 5.58,-0.3204 1.486,0.6004 2.6392,1.8076 3.1338,3.336 0.7872,2.4319 -0.3132,4.8441 -2.3478,6.2637 l -0.0523,0.0365 -0.0566,0.029 c -90.1786,46.2963 -186.9349,71.6795 -288.5916,69.1456 -27.0494,-0.6744 -53.8767,-3.6785 -80.4475,-8.7609 C 300.6351,599.049 275.6443,592.3314 250.9952,584.4236 224.7745,576.0113 198.997,566.2929 173.3768,556.2172 147.0613,545.8683 120.8931,535.1519 94.5189,524.95 76.1148,517.8308 57.4193,511.5904 38.3431,506.5253 19.7564,501.5905 0.9422,497.812 -18.0918,495.084 c -14.5613,11.2015 -28.8254,22.6999 -46.0528,29.6363 -2.8043,1.129 -5.9947,1.9939 -8.9253,2.7221 -4.3161,1.0725 -8.7397,1.919 -13.1568,2.4386 -8.8288,1.0385 -26.3204,1.7039 -26.3204,-11.2268 0,-9.444 6.1652,-16.8255 13.4561,-22.137 17.2098,-12.5375 39.2118,-15.1982 59.9379,-14.5823 4.3935,0.1305 8.7833,0.4064 13.1608,0.8014 0.3453,-0.2822 0.6906,-0.5644 1.0345,-0.848 v -0.006 l 0.3406,-0.2824 c 0.7627,-0.6332 1.5282,-1.2644 2.2866,-1.903 3.7849,-3.184 7.5236,-6.4234 11.2263,-9.7025 12.7578,-11.2987 25.0264,-23.1435 37.2236,-35.0423 -3.0484,0.4287 -6.1577,0.7236 -9.183,1.0604 -5.2113,0.5802 -10.4205,1.1973 -15.5925,2.0688 -8.2866,1.3963 -24.4583,4.6149 -28.3289,13.2234 -0.6016,1.3384 -0.8856,2.7497 -0.8856,4.2155 0,1.3141 -0.4671,2.573 -1.6304,3.2811 -1.4166,0.862 -3.2361,0.5316 -4.586,-0.2945 -1.6707,-1.0224 -2.7092,-2.7584 -2.9579,-4.6879 -0.9295,-7.2085 8.4147,-14.2412 13.5607,-17.5767 7.2839,-4.7207 15.7376,-7.9561 24.0562,-10.3256 7.6082,-2.1672 15.4159,-3.6938 23.2311,-4.8941 6.3516,-0.9756 12.7083,-1.6984 19.0827,-2.4776 0.938,-0.5286 2.4977,-2.0794 3.2081,-2.7718 2.0753,-2.0222 4.0737,-4.1545 6.0397,-6.2824 5.5046,-5.9582 10.856,-12.0919 16.1571,-18.2315 4.9134,-5.6906 9.7843,-11.4192 14.6209,-17.1751 3.0291,-3.6047 6.0722,-7.2183 9.0346,-10.8784 6.0772,-7.5081 12.1035,-15.0611 17.7006,-22.9378 6.2098,-8.739 12.4012,-18.4687 16.3001,-28.4855 1.0343,-2.6564 2.0803,-5.9302 2.0803,-8.808 0,-0.7008 -0.0641,-1.4613 -0.2918,-2.1281 -0.1362,-0.3983 -0.3373,-0.7775 -0.6409,-1.0736 -0.3552,-0.3463 -0.8235,-0.5804 -1.2875,-0.7434 -0.7876,-0.2763 -1.6653,-0.394 -2.4965,-0.4404 -0.5373,-0.006 -1.0769,-0.0528 -1.6033,-0.1619 -0.5867,-0.1217 -1.1584,-0.3151 -1.6832,-0.6046 -0.7834,-0.4299 -1.4316,-1.0229 -1.8907,-1.7913 -0.4626,-0.7737 -0.6804,-1.629 -0.6804,-2.5299 0,-1.0293 0.24,-2.0108 0.7643,-2.8986 0.5224,-0.8844 1.2667,-1.5661 2.1594,-2.0687 l 0.0328,-0.0184 0.1102,-0.0506 c 0.7323,-0.3578 1.4813,-0.6105 2.2826,-0.7596 0.7215,-0.1345 1.437,-0.1819 2.17,-0.1819 h 0.0293 l 0.1401,0.009 c 2.5184,0.1586 5.042,0.4266 7.4869,1.0753 2.6856,0.7127 5.1595,1.8565 7.2977,3.6525 l 0.3361,0.2824 v 0.0151 c 1.6971,1.5096 2.9937,3.3251 3.8697,5.4348 0.9747,2.3477 1.3586,4.8741 1.3586,7.4059 0,1.8085 -0.1943,3.6195 -0.5118,5.3988 -0.8762,4.9091 -2.1927,9.9092 -3.4398,14.7391 -1.686,6.5313 -3.45,13.0431 -5.1739,19.5645 -2.02,7.6406 -4.0393,15.3268 -5.7274,23.045 l -9.5603,44.9513 c 6.6554,-1.6506 13.6884,-4.6465 16.6343,-11.2411 0.9216,-2.0633 1.3223,-4.1358 1.7686,-6.3292 0.3484,-1.7128 0.7632,-3.7606 2.0391,-5.0438 1.063,-1.0694 2.4755,-1.3987 3.9413,-1.3987 0.7297,0 1.4396,0.1376 2.1149,0.4136 0.3828,0.1564 0.7415,0.3533 1.0745,0.5884 l 0.0573,-0.0572 0.6663,0.6592 c 0.4435,0.4389 0.8058,0.9469 1.0934,1.4997 0.2784,0.5349 0.48,1.1082 0.6254,1.6919 0.9668,3.8593 0.0812,8.2392 -1.3243,11.883 -5.2947,13.7287 -17.7088,19.0302 -31.2243,21.5983 -1.9199,12.3103 -3.2125,25.1097 -1.889,37.5314 0.3573,3.3515 0.9885,6.7921 1.9158,10.0317 1.0355,3.6164 3.2616,9.7242 7.1751,11.1102 1.9286,0.6828 3.896,0.0515 5.5884,-0.9464 14.1086,-8.3188 25.2496,-19.947 34.2838,-33.5035 8.0279,-12.0462 14.0598,-25.0822 19.5576,-38.4293 0.2624,-0.6395 0.6849,-1.196 1.229,-1.6224 0.5389,-0.4221 1.178,-0.7033 1.8544,-0.8067 l 11.5259,-1.7783 h 0.0208 c 1.0234,-0.1336 2.0532,0.1394 2.8842,0.753 0.8543,0.631 1.4188,1.5699 1.5767,2.6206 0.0607,0.4077 0.0551,0.8244 -0.0121,1.2307 -0.0603,0.3649 -0.1681,0.7151 -0.3208,1.0392 -0.1354,0.3072 -0.2673,0.6098 -0.3957,0.9198 -0.1618,0.3912 -0.3156,0.7874 -0.4713,1.181 l -0.2355,0.5959 h -0.007 c -1.71,4.3377 -3.354,8.7013 -5.0582,13.0411 0.1772,-0.2037 0.354,-0.4072 0.5314,-0.6107 2.8119,-3.2278 5.6565,-6.431 8.564,-9.5733 1.9112,-2.0652 3.852,-4.1106 5.8492,-6.0932 1.6313,-1.6195 3.3404,-3.2608 5.1357,-4.6981 1.7621,-1.4104 3.6306,-2.7108 5.6101,-3.799 1.8438,-1.013 3.7877,-1.849 5.8148,-2.419 1.9083,-0.5365 3.8701,-0.8328 5.8541,-0.8328 1.0095,0 2.0181,0.0815 3.0121,0.2574 0.9683,0.171 1.9163,0.4355 2.8321,0.7921 0.9174,0.3569 1.7972,0.8027 2.6208,1.3419 0.8261,0.541 1.5921,1.1659 2.29,1.8641 0.6804,0.6804 1.2968,1.4217 1.8353,2.2194 0.5314,0.787 0.9784,1.626 1.3397,2.5038 0.3616,0.8772 0.6334,1.7866 0.8115,2.7184 0.1809,0.9471 0.269,1.9088 0.269,2.8731 0,0.6028 -0.0396,1.205 -0.1138,1.8028 -0.0756,0.6117 -0.1946,1.219 -0.3385,1.8177 -0.1446,0.6046 -0.3196,1.2015 -0.5257,1.788 -0.2106,0.6006 -0.4499,1.1911 -0.7163,1.7691 -0.3059,0.6643 -0.6628,1.3082 -1.0835,1.9067 -0.4086,0.5816 -0.8795,1.1177 -1.4167,1.5838 -0.6117,0.5307 -1.2976,0.9575 -2.0535,1.2514 -0.7612,0.2959 -1.5567,0.4468 -2.3733,0.4468 -1.0005,0 -1.9604,-0.2202 -2.8458,-0.6873 -0.8821,-0.4656 -1.6042,-1.135 -2.1782,-1.9479 -0.4634,-0.6567 -0.8054,-1.3911 -1.0555,-2.1531 -0.2527,-0.7695 -0.4138,-1.5708 -0.5144,-2.3735 -0.0959,-0.525 -0.241,-1.07 -0.4784,-1.5489 -0.1453,-0.2935 -0.3349,-0.5771 -0.5856,-0.7909 -0.2419,-0.2064 -0.537,-0.3425 -0.8394,-0.4344 -0.5154,-0.1564 -1.1007,-0.1981 -1.6368,-0.1981 -1.1694,0 -2.3231,0.2377 -3.4252,0.6195 -1.4262,0.4939 -2.7905,1.2291 -4.056,2.0452 -1.6947,1.0936 -3.2806,2.3778 -4.7673,3.738 -1.8519,1.6938 -3.5835,3.5343 -5.2264,5.4297 -0.4563,0.5269 -0.9106,1.0554 -1.3638,1.5852 -0.4617,0.5394 -0.9212,1.0809 -1.3793,1.6231 -0.4556,0.5394 -0.909,1.0804 -1.3612,1.6224 l -0.5912,0.7085 -0.002,-0.001 c -0.2125,0.2567 -0.4245,0.5139 -0.636,0.7714 -0.403,0.4913 -0.7999,0.9878 -1.1949,1.4857 -0.3921,0.4942 -0.7808,0.991 -1.1649,1.4915 -0.3197,0.4162 -0.6344,0.8364 -0.9479,1.2564 -0.0374,0.0504 -0.0749,0.1005 -0.1123,0.1509 1.2328,3.8773 2.8079,7.6369 4.7553,11.2113 2.1008,3.855 4.6133,7.4555 7.5121,10.759 l 0.0297,0.0348 c 2.723,3.062 5.896,5.8678 9.5462,7.7735 3.0978,1.6175 6.397,2.4925 9.8926,2.4925 1.8281,0 3.6403,-0.2388 5.4097,-0.6976 9.4574,-2.4518 19.1579,-10.5779 25.1557,-18.2191 z m 16.9004,-33.8944 c -0.7462,0.7577 -1.4099,1.5899 -1.9785,2.4887 -0.6023,0.9518 -1.0931,1.967 -1.4787,3.0251 -0.4292,1.1762 -0.7297,2.3966 -0.9269,3.6322 -0.2244,1.406 -0.3125,2.8373 -0.3125,4.2602 0,1.4149 0.1071,2.8277 0.3135,4.2275 0.2169,1.4724 0.537,2.928 0.9501,4.3575 l 0.037,0.1284 v 0.006 c 0.0443,0.1512 0.0898,0.3025 0.1359,0.4532 0.3837,-0.9407 0.7757,-1.8784 1.1711,-2.814 0.6466,-1.5294 1.3089,-3.0524 1.9849,-4.5692 0.7243,-1.6246 1.4653,-3.2418 2.2183,-4.8531 0.7981,-1.7067 1.6053,-3.4092 2.4304,-5.103 0.8802,-1.8087 1.778,-3.6089 2.6835,-5.4051 0.7096,-1.4083 1.4259,-2.8136 2.1476,-4.2157 -0.9589,0.1566 -1.9069,0.3761 -2.8345,0.6668 -1.2177,0.3813 -2.3928,0.8837 -3.5022,1.5147 -1.0908,0.6209 -2.1057,1.361 -3.039,2.1995 z m 16.2415,61.6832 c -1.609,-0.4843 -3.1932,-1.0488 -4.748,-1.6862 -1.6794,-0.6883 -3.3226,-1.4634 -4.921,-2.3234 -0.3021,-0.1627 -0.6029,-0.3283 -0.9018,-0.4972 -0.01,0.3905 -0.0128,0.7813 -0.0128,1.1716 0,1.2641 0.0644,2.5951 0.3166,3.8364 0.1451,0.7149 0.3745,1.5127 0.7679,2.1345 0.1587,0.2511 0.3601,0.473 0.6263,0.6112 0.3326,0.1729 0.7544,0.2184 1.1237,0.2184 1.6856,0 3.421,-0.7276 4.8663,-1.5402 1.0015,-0.5634 1.9632,-1.2204 2.8828,-1.9251 z m 13.2515,-62.5535 c -0.323,0.5686 -0.6454,1.1374 -0.9672,1.7067 l -0.4541,0.8037 -0.002,-0.001 c -0.5111,0.9094 -1.0194,1.8205 -1.5291,2.7304 -0.7274,1.2992 -1.4554,2.598 -2.1778,3.8998 -0.7135,1.2858 -1.422,2.5745 -2.1298,3.8633 -0.7047,1.2826 -1.3996,2.5707 -2.0775,3.8676 -0.6819,1.3049 -1.3477,2.6183 -2.0028,3.9368 -0.6606,1.3306 -1.3077,2.668 -1.9418,4.0115 -0.6279,1.331 -1.2422,2.6623 -1.8379,3.9962 l -3.4085,8.1424 c -0.4649,1.1169 -0.9011,2.2456 -1.3053,3.3858 -0.2045,0.5773 -0.4019,1.1575 -0.5903,1.7402 1.1848,1.0149 2.4162,1.9757 3.6928,2.8731 1.6391,1.1525 3.355,2.1938 5.1409,3.103 1.6982,0.864 3.4554,1.6116 5.2636,2.2129 1.2585,0.4186 2.5389,0.7676 3.8351,1.047 l 1.9262,-2.6731 c 0.1437,-0.2017 0.286,-0.4042 0.4252,-0.6089 l 0.2598,-0.4018 c 0.2162,-0.3343 0.4256,-0.6735 0.6258,-1.018 0.1936,-0.3326 0.3795,-0.6699 0.5561,-1.0117 0.1745,-0.3378 0.3397,-0.6802 0.4968,-1.0265 l 0.0162,-0.036 0.0436,-0.0777 0.0285,-0.0568 c 1.1037,-2.2447 2.1133,-4.5349 3.0088,-6.8707 0.8218,-2.143 1.5468,-4.3262 2.137,-6.5443 0.543,-2.0421 0.9747,-4.1148 1.2651,-6.2081 0.2702,-1.9491 0.4134,-3.9149 0.4134,-5.8828 0,-2.5318 -0.1969,-5.1103 -0.7526,-7.5846 -0.4484,-1.9977 -1.1379,-3.9533 -2.1719,-5.726 -0.8441,-1.4481 -1.9043,-2.7306 -3.1821,-3.8148 -0.8051,-0.6829 -1.6799,-1.2727 -2.6041,-1.7774 z m 47.1753,-90.9745 c -1.3009,0.1908 -2.6906,1.4123 -3.5352,2.2579 -2.3844,2.3874 -4.4324,5.7074 -6.0734,8.6398 l -0.033,0.065 -0.0202,0.0297 c -5.8918,10.3306 -11.4887,20.8291 -16.7719,31.4837 -2.813,5.6725 -5.5375,11.3888 -8.1706,17.1471 0.5123,-0.5924 1.0217,-1.1871 1.5288,-1.7838 1.1349,-1.3357 2.257,-2.6821 3.364,-4.0409 1.1221,-1.3779 2.2311,-2.7669 3.3254,-4.1672 1.0985,-1.4059 2.1834,-2.8227 3.2542,-4.25 l 0.0344,-0.0514 0.1889,-0.2391 c 2.427,-3.1981 4.7914,-6.4455 7.069,-9.7516 2.0615,-2.992 4.0492,-6.0376 5.9297,-9.1464 1.6241,-2.6845 3.1725,-5.4224 4.5846,-8.2246 1.4391,-2.8567 2.7992,-5.7811 3.8956,-8.7873 0.7443,-2.041 2.3592,-6.8778 1.4297,-9.1809 z M 837.8336,503.981 c -1.7465,0.4913 -3.4923,0.9848 -5.2377,1.4803 -24.2554,6.8884 -48.427,14.4219 -71.2294,25.3149 -5.6214,2.6857 -11.1742,5.5936 -16.4911,8.8443 -10.2749,6.2819 -24.6803,17.8445 -29.1525,29.8571 -1.6865,4.5299 -1.2121,8.8002 0.733,13.1878 0.5408,1.2213 1.221,2.371 2.0421,3.4248 0.8461,1.0858 1.8266,2.0549 2.9023,2.9122 1.1685,0.9318 2.4277,1.7402 3.7569,2.4235 1.3993,0.7193 2.8684,1.2957 4.3749,1.7489 1.673,0.5036 3.3887,0.8588 5.1199,1.0898 1.9385,0.2589 3.9003,0.3635 5.8553,0.3635 9.2947,0 18.2313,-2.2325 26.6822,-6.0322 4.7667,-2.143 9.3211,-4.753 13.6562,-7.6673 4.8662,-3.2712 9.472,-6.9397 13.8455,-10.8422 l 0.0447,-0.04 0.005,-0.003 c 5.4838,-4.9901 10.5489,-10.4193 15.173,-16.2148 4.7965,-6.011 9.1062,-12.3957 12.9509,-19.0542 0.8397,-1.4542 1.6827,-2.9061 2.5295,-4.3561 2.0697,-3.5451 4.1561,-7.0937 6.0338,-10.7453 2.6307,-5.1155 4.6644,-10.2564 6.4057,-15.6919 z m -178.8672,-71.2301 -13.9249,28.4171 -0.0365,0.0811 c -0.1882,0.4176 -0.3832,0.8326 -0.5775,1.2472 -0.188,0.4016 -0.3748,0.8053 -0.5691,1.204 -0.1823,0.3736 -0.3707,0.7446 -0.5589,1.1148 -0.1983,0.3913 -0.3997,0.7809 -0.6042,1.1693 -0.3231,0.6138 -0.6439,1.229 -0.9617,1.8459 -0.0954,0.1851 -0.1905,0.3705 -0.2852,0.5561 0.6409,1.1247 1.3586,2.2098 2.1707,3.2177 0.9057,1.124 1.9354,2.1571 3.1077,3.0032 1.0821,0.7808 2.2645,1.3804 3.5371,1.7797 1.3297,0.4171 2.7125,0.5976 4.1038,0.5976 0.5088,0 1.0183,-0.0245 1.524,-0.0815 0.4934,-0.0556 0.9831,-0.139 1.4667,-0.2509 0.489,-0.1133 0.9707,-0.2565 1.4434,-0.4247 0.4878,-0.1738 0.9657,-0.3747 1.4316,-0.6006 0.4826,-0.2341 0.9546,-0.4906 1.4111,-0.7721 0.4645,-0.2862 0.9132,-0.5983 1.3473,-0.9294 0.4466,-0.3402 0.8765,-0.7027 1.2882,-1.0845 0.4249,-0.3938 0.8333,-0.8057 1.2203,-1.2375 0.3948,-0.4395 0.7674,-0.8988 1.12,-1.3727 0.3576,-0.481 0.692,-0.9787 1.0046,-1.4896 0.3168,-0.5184 0.61,-1.0512 0.8797,-1.5955 0.2803,-0.5656 0.5328,-1.1452 0.7646,-1.7322 l 0.0151,-0.0384 0.0212,-0.0426 c 0.2167,-0.5575 0.407,-1.1252 0.5678,-1.7011 0.1699,-0.6081 0.3058,-1.226 0.4165,-1.8473 0.1189,-0.6664 0.2056,-1.3386 0.2628,-2.0129 0.0606,-0.713 0.0881,-1.4286 0.0881,-2.1442 0,-1.0531 -0.0624,-2.1055 -0.1896,-3.1505 -0.1276,-1.0477 -0.3168,-2.0872 -0.5688,-3.112 -0.2617,-1.0625 -0.5846,-2.1095 -0.9662,-3.1353 -0.3983,-1.0712 -0.8632,-2.1187 -1.3741,-3.1409 l -0.0467,-0.0933 -0.008,-0.0344 c -0.7542,-1.5684 -1.5871,-3.1008 -2.5024,-4.5812 -0.783,-1.266 -1.6264,-2.4946 -2.5342,-3.6742 l -0.3557,-0.4489 c -0.8536,-1.0769 -1.7604,-2.1119 -2.7209,-3.095 -0.1347,-0.1378 -0.2704,-0.2747 -0.4073,-0.4103 z m -89.8173,4.1334 c -0.6698,0.1998 -1.3294,0.4341 -1.9764,0.7012 -2.2404,0.9243 -4.3009,2.2238 -6.1799,3.7482 -2.6123,2.1187 -4.8947,4.6797 -6.901,7.371 -2.4968,3.3482 -4.6378,6.9962 -6.5302,10.7154 l -0.004,0.0108 -0.0365,0.0688 c -0.003,0.005 -0.006,0.0109 -0.009,0.0163 l -0.3915,0.7697 -0.007,-0.004 c -0.3861,0.7598 -0.7514,1.5317 -1.0825,2.316 -0.3906,0.9255 -0.7354,1.8705 -1.0223,2.8331 -0.245,0.8228 -0.4494,1.662 -0.5844,2.5099 -0.1182,0.742 -0.1809,1.4922 -0.1809,2.2436 0,0.5365 0.0252,1.1178 0.1395,1.6435 0.0162,0.074 0.0452,0.197 0.0812,0.3093 0.3505,-0.004 0.7133,-0.0812 1.0473,-0.1797 0.5791,-0.1708 1.1442,-0.4183 1.6805,-0.6925 0.8018,-0.4112 1.5737,-0.8967 2.3156,-1.4069 0.9443,-0.6494 1.8533,-1.3579 2.7358,-2.0883 l 0.0396,-0.0327 0.0139,-0.009 c 1.6898,-1.4333 3.3263,-2.9348 4.8752,-4.5198 1.3911,-1.4233 2.7167,-2.9171 3.9345,-4.492 1.0582,-1.3691 2.0341,-2.8045 2.8931,-4.3073 0.7236,-1.2655 1.3628,-2.5815 1.8829,-3.9439 0.4624,-3.1812 1.1044,-6.3388 1.9653,-9.4364 0.388,-1.3951 0.82,-2.7782 1.3002,-4.1446 z m -177.567,0 c -0.6699,0.1998 -1.3292,0.4341 -1.9764,0.7012 -2.2405,0.9243 -4.3007,2.2238 -6.1799,3.748 -2.6121,2.1189 -4.8945,4.6801 -6.9011,7.3712 -2.4969,3.3487 -4.6382,6.9969 -6.5306,10.7168 l -0.003,0.009 -0.0365,0.0688 c -0.001,0.002 -0.002,0.004 -0.003,0.005 l -0.3969,0.7806 -0.007,-0.004 c -0.3863,0.7598 -0.7514,1.5317 -1.0825,2.316 -0.3906,0.9255 -0.7354,1.8705 -1.0223,2.8334 -0.2452,0.8225 -0.4494,1.6617 -0.5846,2.5096 -0.1182,0.742 -0.1809,1.4922 -0.1809,2.2436 0,0.5367 0.0254,1.1178 0.1399,1.644 0.016,0.074 0.045,0.1965 0.081,0.3088 0.3503,-0.004 0.7133,-0.0812 1.047,-0.1797 0.5792,-0.1708 1.1445,-0.4186 1.6811,-0.6925 0.8015,-0.4112 1.5731,-0.8967 2.3151,-1.4069 0.9443,-0.6494 1.8532,-1.3576 2.736,-2.0883 l 0.0396,-0.0327 0.0139,-0.009 c 1.6898,-1.4335 3.3263,-2.9346 4.8752,-4.5198 1.3911,-1.4236 2.7165,-2.9171 3.9342,-4.492 1.0583,-1.3691 2.0341,-2.8045 2.8932,-4.3073 0.7233,-1.2655 1.363,-2.5815 1.8829,-3.9439 0.4623,-3.1812 1.1044,-6.3388 1.9655,-9.4364 0.388,-1.3951 0.82,-2.7782 1.3,-4.1446 z m -429.9326,55.5095 c -0.6633,-0.0796 -1.3268,-0.1585 -1.9901,-0.2372 -8.7949,-1.0406 -19.4594,-0.7879 -28.1343,0.9853 -7.722,1.5786 -16.4895,4.4091 -23.1341,8.7397 -2.8493,1.8572 -5.7509,4.3563 -7.7631,7.114 -1.0187,1.3961 -2.6548,4.0965 -1.874,5.9001 1.0769,2.4875 6.4267,2.1005 8.4896,1.876 1.4038,-0.1526 2.8029,-0.3679 4.1916,-0.622 4.0681,-0.7446 8.4875,-1.85 12.3909,-3.2411 4.0962,-1.4605 8.1004,-3.2042 12.008,-5.1107 3.6142,-1.763 7.1543,-3.6692 10.6278,-5.676 5.1506,-3.1148 10.2995,-6.2176 15.1877,-9.7281 z M 115.2894,360.9401 c -15.0001,19.9609 -31.4649,38.5104 -49.5185,55.7851 11.9077,-0.5872 20.2894,-0.4551 32.1976,-1.0265 4.4286,-18.2588 12.1145,-36.6945 17.3209,-54.7586 z"
       style="fill:#ffffff;fill-rule:evenodd"
       id="path30" />
    <path
       d="m 188.8053,276.9986 h -5.6609 v -41.978 h 21.2983 v 5.0957 h -15.6374 z m 68.214,-42.0599 v 42.0195 h -5.4994 v -7.8858 c -0.9984,1.6978 -2.1572,3.1676 -3.4787,4.4213 -3.4774,2.9255 -7.7243,4.3941 -12.7523,4.3941 -3.316,0 -6.7128,-0.8216 -10.1915,-2.4659 -3.4774,-1.6456 -6.2545,-3.7755 -8.331,-6.4041 -1.2395,-1.604 -2.251,-3.5986 -3.0465,-5.998 -0.3633,-1.2277 -0.647,-2.4138 -0.8227,-3.5464 -0.1876,-1.1314 -0.2826,-2.3045 -0.2826,-3.5452 0,-3.9357 1.0115,-7.5889 3.0192,-10.9596 2.0231,-3.3563 4.7585,-6.0253 8.2241,-7.9807 3.4502,-1.9543 7.2115,-2.9385 11.2695,-2.9385 2.5075,0 4.8797,0.3906 7.1307,1.1861 2.2511,0.7824 4.2065,1.9281 5.8639,3.424 1.2407,1.0793 2.3733,2.5075 3.3979,4.3003 v -8.0615 z m -21.582,4.5305 c -3.1415,0 -6.0253,0.7409 -8.6409,2.2107 -2.6286,1.4687 -4.7051,3.4775 -6.2284,6.0254 -1.5232,2.5348 -2.2914,5.3379 -2.2914,8.3844 0,2.9124 0.7551,5.6217 2.2511,8.1161 1.5102,2.4933 3.5724,4.4891 6.2141,5.9981 2.6286,1.5102 5.4471,2.2653 8.4533,2.2653 2.9242,0 5.6348,-0.7421 8.128,-2.225 2.4802,-1.4817 4.476,-3.4905 5.9588,-6.0122 1.496,-2.5206 2.238,-5.2299 2.238,-8.1423 0,-2.9385 -0.7147,-5.6882 -2.1572,-8.2491 -1.4295,-2.5621 -3.3837,-4.597 -5.8639,-6.1072 -2.4802,-1.5102 -5.1634,-2.2642 -8.0615,-2.2642 z m 51.9569,-5.2583 15.597,42.7877 h -6.0253 l -12.5648,-34.4567 -12.4555,34.4567 h -6.2011 l 15.6778,-42.7877 z m 66.3002,23.4567 h -38.0553 c 0.2956,2.2783 0.7409,4.0438 1.3476,5.2975 0.7824,1.807 1.9684,3.4514 3.5451,4.9474 0.7421,0.6612 1.5637,1.2667 2.4672,1.8473 0.9165,0.5794 1.8604,1.0911 2.8719,1.5363 1.9673,0.7824 4.0438,1.1731 6.2272,1.1731 4.584,0 8.5198,-1.5506 11.8097,-4.6648 1.1861,-1.1314 2.2368,-2.6143 3.1545,-4.4748 h 6.0123 c -1.0388,2.3852 -1.9815,4.1922 -2.8446,5.4329 -0.4322,0.6055 -0.9166,1.1991 -1.4829,1.7928 -0.5663,0.5794 -1.2668,1.2395 -2.0766,1.9411 -1.9269,1.6575 -4.2052,2.9658 -6.8338,3.9358 -2.6286,0.9712 -5.2715,1.4556 -7.9001,1.4556 -3.95,0 -7.5889,-0.9569 -10.9322,-2.8708 -3.3434,-1.9281 -6.0123,-4.5698 -7.9808,-7.9535 -1.9815,-3.3706 -2.9658,-7.0641 -2.9658,-11.0545 0,-3.9904 0.97,-7.6567 2.8981,-10.9858 1.9412,-3.3171 4.5971,-5.9861 7.9677,-7.9807 3.3695,-1.9958 7.0096,-2.9931 10.9323,-2.9931 3.2887,0 6.4302,0.7147 9.4091,2.1299 2.9657,1.4295 5.5267,3.4372 7.6566,6.0396 1.9685,2.4529 3.3576,5.2846 4.153,8.4925 0.2019,1.0115 0.3634,2.143 0.4714,3.424 0.0938,1.2811 0.1484,2.4541 0.1484,3.5322 z m -37.8938,-5.1765 h 32.0976 c -0.4049,-2.346 -1.3891,-4.5436 -2.9658,-6.5916 -1.4829,-1.9412 -3.3837,-3.506 -5.7297,-4.6778 -2.346,-1.1731 -4.7716,-1.7525 -7.2791,-1.7525 -2.6286,0 -5.0554,0.5248 -7.253,1.5767 -2.1976,1.0519 -4.0711,2.5752 -5.6074,4.5829 -1.5375,1.9958 -2.6286,4.2872 -3.2626,6.8623 z m 49.7866,-17.5928 h 5.2572 v 7.3064 c 1.2134,-1.7382 2.2641,-2.9242 3.1676,-3.5582 3.9357,-3.0608 8.4925,-4.5971 13.6962,-4.5971 3.2484,0 6.3495,0.7017 9.3022,2.1026 2.9516,1.4164 5.5801,3.4241 7.8715,6.0527 3.3576,3.7351 5.0293,8.3583 5.0293,13.885 0,4.0177 -0.9985,7.684 -2.98,10.9738 -1.9946,3.303 -4.7313,5.9316 -8.2088,7.8858 -3.4917,1.9555 -7.2802,2.9385 -11.3644,2.9385 -5.2845,0 -9.6655,-1.5767 -13.1038,-4.7443 -0.9831,-0.8358 -1.9815,-2.1572 -3.0062,-3.9904 v 22.5663 h -5.6608 z m 21.7565,37.5709 c 1.2134,0 2.3734,-0.1211 3.4787,-0.3503 1.1054,-0.2434 2.2107,-0.5806 3.316,-1.0246 2.0623,-0.8501 3.8289,-1.9815 5.3379,-3.4241 1.4972,-1.4425 2.6833,-3.1676 3.5464,-5.1634 0.3906,-0.9972 0.7005,-2.0349 0.9166,-3.0868 0.2018,-1.065 0.3098,-2.1834 0.3098,-3.3303 0,-2.9385 -0.742,-5.7012 -2.2107,-8.2764 -1.4697,-2.5752 -3.5047,-4.6101 -6.0799,-6.1072 -2.5752,-1.496 -5.3652,-2.2369 -8.3714,-2.2369 -3.1272,0 -5.9719,0.7136 -8.5067,2.1431 -2.5479,1.4282 -4.5567,3.424 -6.0253,5.9849 -1.4699,2.5621 -2.2107,5.3653 -2.2107,8.4118 0,2.9931 0.7147,5.7427 2.1561,8.2645 1.4294,2.5205 3.3979,4.5151 5.8781,5.985 2.4932,1.4686 5.2037,2.2107 8.1553,2.2107 z m 76.5059,-14.8016 h -38.0553 c 0.2957,2.2783 0.7409,4.0438 1.3476,5.2975 0.7824,1.807 1.9685,3.4514 3.5451,4.9474 0.7421,0.6612 1.5637,1.2667 2.4672,1.8473 0.9165,0.5794 1.8604,1.0911 2.872,1.5363 1.9673,0.7824 4.0438,1.1731 6.2272,1.1731 4.584,0 8.5197,-1.5506 11.8096,-4.6648 1.1861,-1.1314 2.2368,-2.6143 3.1546,-4.4748 h 6.0122 c -1.0388,2.3852 -1.9815,4.1922 -2.8446,5.4329 -0.4322,0.6055 -0.9166,1.1991 -1.4829,1.7928 -0.5663,0.5794 -1.2668,1.2395 -2.0765,1.9411 -1.9269,1.6575 -4.2053,2.9658 -6.8339,3.9358 -2.6286,0.9712 -5.2714,1.4556 -7.9,1.4556 -3.95,0 -7.589,-0.9569 -10.9323,-2.8708 -3.3433,-1.9281 -6.0123,-4.5698 -7.9808,-7.9535 -1.9815,-3.3706 -2.9658,-7.0641 -2.9658,-11.0545 0,-3.9904 0.97,-7.6567 2.8981,-10.9858 1.9412,-3.3171 4.5971,-5.9861 7.9677,-7.9807 3.3695,-1.9958 7.0096,-2.9931 10.9323,-2.9931 3.2888,0 6.4302,0.7147 9.4091,2.1299 2.9658,1.4295 5.5267,3.4372 7.6566,6.0396 1.9685,2.4529 3.3576,5.2846 4.153,8.4925 0.2019,1.0115 0.3634,2.143 0.4714,3.424 0.0938,1.2811 0.1484,2.4541 0.1484,3.5322 z m -37.8938,-5.1765 h 32.0976 c -0.4048,-2.346 -1.3891,-4.5436 -2.9658,-6.5916 -1.4829,-1.9412 -3.3836,-3.506 -5.7297,-4.6778 -2.346,-1.1731 -4.7716,-1.7525 -7.2791,-1.7525 -2.6286,0 -5.0554,0.5248 -7.2529,1.5767 -2.1977,1.0519 -4.0712,2.5752 -5.6075,4.5829 -1.5375,1.9958 -2.6286,4.2872 -3.2626,6.8623 z m 46.1465,24.5075 16.3117,-17.9027 c -1.2537,0 -2.4137,-0.1342 -3.4513,-0.3764 -1.0519,-0.2565 -2.1169,-0.6471 -3.1949,-1.173 -1.8605,-0.9439 -3.29,-2.3057 -4.2872,-4.0854 -0.9973,-1.7654 -1.496,-3.8277 -1.496,-6.1737 0,-3.5179 1.1327,-6.3768 3.3968,-8.5602 1.389,-1.3072 3.0868,-2.2641 5.0957,-2.8447 1.9958,-0.5793 4.7182,-0.8619 8.1695,-0.8619 h 11.8892 v 41.978 h -5.7427 V 239.55 h -4.8654 c -3.2769,0 -5.8378,0.2149 -7.684,0.6328 -1.4021,0.3918 -2.5621,1.268 -3.4917,2.6025 -0.8501,1.3748 -1.2668,2.9515 -1.2668,4.7443 0,2.98 1.2668,5.2441 3.8004,6.7947 1.1326,0.7147 2.3864,1.2003 3.7482,1.4698 0.6067,0.0938 1.4283,0.1888 2.4802,0.2695 1.0377,0.0807 2.1845,0.1211 3.424,0.1211 h 2.7236 l -17.9704,20.8139 z m 109.4239,-42.0599 v 42.0195 h -5.4995 v -7.8858 c -0.9984,1.6978 -2.1572,3.1676 -3.4786,4.4213 -3.4775,2.9255 -7.7243,4.3941 -12.7524,4.3941 -3.316,0 -6.7127,-0.8216 -10.1914,-2.4659 -3.4775,-1.6456 -6.2545,-3.7755 -8.331,-6.4041 -1.2395,-1.604 -2.2511,-3.5986 -3.0466,-5.998 -0.3632,-1.2277 -0.647,-2.4138 -0.8227,-3.5464 -0.1876,-1.1314 -0.2826,-2.3045 -0.2826,-3.5452 0,-3.9357 1.0115,-7.5889 3.0192,-10.9596 2.0231,-3.3563 4.7586,-6.0253 8.2242,-7.9807 3.4501,-1.9543 7.2114,-2.9385 11.2695,-2.9385 2.5074,0 4.8796,0.3906 7.1307,1.1861 2.251,0.7824 4.2064,1.9281 5.8638,3.424 1.2407,1.0793 2.3734,2.5075 3.3979,4.3003 v -8.0615 z m -21.5821,4.5305 c -3.1415,0 -6.0253,0.7409 -8.6409,2.2107 -2.6285,1.4687 -4.7051,3.4775 -6.2283,6.0254 -1.5233,2.5348 -2.2914,5.3379 -2.2914,8.3844 0,2.9124 0.755,5.6217 2.251,8.1161 1.5102,2.4933 3.5725,4.4891 6.2141,5.9981 2.6286,1.5102 5.4472,2.2653 8.4533,2.2653 2.9242,0 5.6348,-0.7421 8.128,-2.225 2.4802,-1.4817 4.476,-3.4905 5.9589,-6.0122 1.4959,-2.5206 2.2379,-5.2299 2.2379,-8.1423 0,-2.9385 -0.7147,-5.6882 -2.1572,-8.2491 -1.4295,-2.5621 -3.3837,-4.597 -5.8639,-6.1072 -2.4802,-1.5102 -5.1634,-2.2642 -8.0615,-2.2642 z m 40.862,37.5294 h -5.6609 v -42.0599 h 5.6609 z m 0.7289,-21.7578 18.5083,-20.3021 6.7127,-0.0131 -18.5082,20.1537 19.7619,21.9193 -6.9822,-0.0131 z m 35.7128,21.7578 v -41.978 h 12.8735 c 2.2641,0 4.1388,0.1615 5.6217,0.4713 1.4686,0.3241 2.777,0.8632 3.9085,1.6183 1.5244,0.9569 2.7235,2.2368 3.6128,3.842 0.8762,1.6039 1.3214,3.3421 1.3214,5.2168 0,1.8734 -0.4713,3.5855 -1.4152,5.1218 -0.9569,1.5375 -2.2249,2.6428 -3.842,3.3029 2.2107,0.4714 4.0308,1.699 5.459,3.6663 1.4295,1.9685 2.1442,4.2338 2.1442,6.7817 0,1.9815 -0.4582,3.8146 -1.3748,5.5266 -0.9309,1.7121 -2.1846,3.087 -3.8016,4.1388 -1.3084,0.8762 -2.777,1.4687 -4.3953,1.7928 -1.617,0.3372 -4.0034,0.4987 -7.171,0.4987 z m 5.5802,-5.0958 h 7.4548 c 3.3433,0 5.6893,-0.3502 7.0238,-1.0649 2.3187,-1.2941 3.4775,-3.2757 3.4775,-5.9589 0,-1.4687 -0.3906,-2.777 -1.1861,-3.9227 -0.7824,-1.1315 -1.8877,-1.9412 -3.2887,-2.4125 -1.4164,-0.4714 -3.5998,-0.7147 -6.5786,-0.7147 h -6.9027 z m 0,-19.0887 h 6.9965 c 2.9527,0 5.028,-0.3372 6.2153,-1.0247 1.8735,-1.0376 2.8031,-2.8173 2.8031,-5.3509 0,-2.3734 -0.9296,-4.1388 -2.8031,-5.2988 -0.4725,-0.3098 -1.0115,-0.539 -1.6052,-0.6732 -0.5924,-0.121 -1.2134,-0.216 -1.8604,-0.2695 -0.6471,-0.0546 -1.4829,-0.0807 -2.5063,-0.0807 h -7.2399 z m 78.9184,-17.8754 v 42.0195 h -5.4994 v -7.8858 c -0.9985,1.6978 -2.1573,3.1676 -3.4787,4.4213 -3.4775,2.9255 -7.7243,4.3941 -12.7524,4.3941 -3.316,0 -6.7127,-0.8216 -10.1914,-2.4659 -3.4775,-1.6456 -6.2545,-3.7755 -8.331,-6.4041 -1.2395,-1.604 -2.2511,-3.5986 -3.0465,-5.998 -0.3633,-1.2277 -0.6471,-2.4138 -0.8228,-3.5464 -0.1876,-1.1314 -0.2825,-2.3045 -0.2825,-3.5452 0,-3.9357 1.0115,-7.5889 3.0192,-10.9596 2.023,-3.3563 4.7585,-6.0253 8.2241,-7.9807 3.4502,-1.9543 7.2114,-2.9385 11.2695,-2.9385 2.5075,0 4.8796,0.3906 7.1307,1.1861 2.251,0.7824 4.2064,1.9281 5.8638,3.424 1.2407,1.0793 2.3734,2.5075 3.398,4.3003 v -8.0615 z m -21.5821,4.5305 c -3.1414,0 -6.0253,0.7409 -8.6408,2.2107 -2.6286,1.4687 -4.7052,3.4775 -6.2284,6.0254 -1.5233,2.5348 -2.2914,5.3379 -2.2914,8.3844 0,2.9124 0.7551,5.6217 2.251,8.1161 1.5102,2.4933 3.5725,4.4891 6.2142,5.9981 2.6285,1.5102 5.4471,2.2653 8.4532,2.2653 2.9243,0 5.6348,-0.7421 8.128,-2.225 2.4802,-1.4817 4.476,-3.4905 5.9589,-6.0122 1.496,-2.5206 2.238,-5.2299 2.238,-8.1423 0,-2.9385 -0.7148,-5.6882 -2.1573,-8.2491 -1.4294,-2.5621 -3.3837,-4.597 -5.8638,-6.1072 -2.4803,-1.5102 -5.1635,-2.2642 -8.0616,-2.2642 z m 35.2011,-4.5709 h 5.2572 v 7.3064 c 1.2134,-1.7382 2.2641,-2.9242 3.1676,-3.5582 3.9358,-3.0608 8.4925,-4.5971 13.6963,-4.5971 3.2483,0 6.3494,0.7017 9.3022,2.1026 2.9515,1.4164 5.5801,3.4241 7.8715,6.0527 3.3576,3.7351 5.0293,8.3583 5.0293,13.885 0,4.0177 -0.9986,7.684 -2.9801,10.9738 -1.9946,3.303 -4.7312,5.9316 -8.2087,7.8858 -3.4917,1.9555 -7.2803,2.9385 -11.3645,2.9385 -5.2844,0 -9.6654,-1.5767 -13.1037,-4.7443 -0.9831,-0.8358 -1.9816,-2.1572 -3.0062,-3.9904 v 22.5663 h -5.6609 z m 21.7566,37.5709 c 1.2133,0 2.3733,-0.1211 3.4787,-0.3503 1.1053,-0.2434 2.2106,-0.5806 3.316,-1.0246 2.0623,-0.8501 3.8289,-1.9815 5.3379,-3.4241 1.4971,-1.4425 2.6832,-3.1676 3.5463,-5.1634 0.3906,-0.9972 0.7005,-2.0349 0.9166,-3.0868 0.2019,-1.065 0.3099,-2.1834 0.3099,-3.3303 0,-2.9385 -0.742,-5.7012 -2.2107,-8.2764 -1.4698,-2.5752 -3.5048,-4.6101 -6.08,-6.1072 -2.5751,-1.496 -5.3652,-2.2369 -8.3713,-2.2369 -3.1273,0 -5.9719,0.7136 -8.5067,2.1431 -2.5479,1.4282 -4.5568,3.424 -6.0254,5.9849 -1.4698,2.5621 -2.2107,5.3653 -2.2107,8.4118 0,2.9931 0.7148,5.7427 2.1561,8.2645 1.4295,2.5205 3.3979,4.5151 5.8781,5.985 2.4933,1.4686 5.2038,2.2107 8.1553,2.2107 z m 40.2291,-2.6963 24.2522,-34.8473 5.7558,0.0131 v 42.0599 h -5.7427 v -34.8604 l -24.2653,34.8604 h -5.6608 v -42.0599 h 5.6608 z m 73.1495,-34.8473 6.0657,0.0131 -24.3317,56.7807 -5.9054,0.0404 6.5786,-15.9746 -16.1491,-40.8465 h 6.0799 l 13.3591,33.5674 z m 14.8586,42.073 v -41.978 l 8.8024,0.013 13.8577,32.677 0.5936,2.0089 0.5521,-2.13 13.2652,-32.6093 8.6279,0.0404 v 41.978 h -5.6621 v -36.5594 l -15.3548,36.5594 h -3.639 L 891.02,240.5069 v 36.4917 z m 78.8092,-42.9492 c 3.95,0 7.6305,0.9842 11.0272,2.9527 3.411,1.9816 6.1334,4.6375 8.1553,8.0069 2.0362,3.3706 3.0465,6.9835 3.0465,10.8385 0,3.95 -0.9842,7.6163 -2.9657,11 -1.9673,3.3967 -4.6232,6.08 -7.9535,8.0615 -3.3291,1.9815 -6.9692,2.9788 -10.9192,2.9788 -3.842,0 -7.4809,-0.97 -10.905,-2.8981 -3.4241,-1.9269 -6.1203,-4.5828 -8.1161,-7.9392 -1.9815,-3.3706 -2.9789,-6.9965 -2.9789,-10.8789 0,-3.8693 0.9712,-7.5094 2.9254,-10.9061 1.9412,-3.3968 4.5971,-6.1204 7.9404,-8.1553 3.3434,-2.0362 6.9147,-3.0608 10.7436,-3.0608 z m 0.3906,5.4198 c -1.509,0 -2.9516,0.2019 -4.3537,0.6056 -1.4022,0.4048 -2.7236,1.0115 -3.9904,1.7939 -2.4802,1.4425 -4.4356,3.4371 -5.8639,5.985 -1.4152,2.5478 -2.1299,5.3248 -2.1299,8.3179 0,2.9658 0.7278,5.7012 2.1703,8.2088 1.4556,2.5074 3.4644,4.4759 6.0123,5.9184 2.5609,1.4426 5.3118,2.1704 8.236,2.1704 3.0061,0 5.7297,-0.7421 8.1696,-2.225 2.4398,-1.4817 4.3679,-3.5178 5.7973,-6.0787 1.4153,-2.5752 2.13,-5.4329 2.13,-8.5471 0,-2.8447 -0.7147,-5.5006 -2.1573,-7.9808 -1.4425,-2.4802 -3.3837,-4.4617 -5.8508,-5.9446 -2.4671,-1.4829 -5.0827,-2.2238 -7.8596,-2.2238 z m 33.8393,37.5294 v -41.978 h 12.8734 c 2.2642,0 4.1389,0.1615 5.6217,0.4713 1.4687,0.3241 2.777,0.8632 3.9085,1.6183 1.5244,0.9569 2.7236,2.2368 3.6128,3.842 0.8762,1.6039 1.3214,3.3421 1.3214,5.2168 0,1.8734 -0.4713,3.5855 -1.4152,5.1218 -0.9569,1.5375 -2.2249,2.6428 -3.842,3.3029 2.2107,0.4714 4.0308,1.699 5.4591,3.6663 1.4294,1.9685 2.1442,4.2338 2.1442,6.7817 0,1.9815 -0.4583,3.8146 -1.3749,5.5266 -0.9308,1.7121 -2.1845,3.087 -3.8016,4.1388 -1.3084,0.8762 -2.777,1.4687 -4.3952,1.7928 -1.6171,0.3372 -4.0035,0.4987 -7.1711,0.4987 z m 5.5801,-5.0958 h 7.4548 c 3.3433,0 5.6894,-0.3502 7.0238,-1.0649 2.3188,-1.2941 3.4775,-3.2757 3.4775,-5.9589 0,-1.4687 -0.3906,-2.777 -1.186,-3.9227 -0.7825,-1.1315 -1.8878,-1.9412 -3.2887,-2.4125 -1.4165,-0.4714 -3.5998,-0.7147 -6.5787,-0.7147 h -6.9027 z m 0,-19.0887 h 6.9965 c 2.9527,0 5.0281,-0.3372 6.2153,-1.0247 1.8735,-1.0376 2.8032,-2.8173 2.8032,-5.3509 0,-2.3734 -0.9297,-4.1388 -2.8032,-5.2988 -0.4725,-0.3098 -1.0115,-0.539 -1.6052,-0.6732 -0.5924,-0.121 -1.2133,-0.216 -1.8604,-0.2695 -0.647,-0.0546 -1.4829,-0.0807 -2.5063,-0.0807 h -7.2399 z"
       style="fill:#85ccbd;fill-rule:evenodd"
       id="path32" />
  </g>
</svg>
